{"glyphs":{"0":{"ha":967,"x_min":0,"x_max":0,"o":"m 483 -14 b 858 521 724 -14 858 215 b 483 1056 858 826 724 1056 b 109 521 241 1056 109 826 b 483 -14 109 215 241 -14 z m 484 97 b 222 521 309 97 222 274 b 484 944 222 767 309 944 b 747 521 658 944 747 767 b 484 97 747 274 658 97 z "},"1":{"ha":533,"x_min":0,"x_max":0,"o":"m 241 0 l 352 0 l 352 1042 l 68 1042 l 68 931 l 241 931 z "},"2":{"ha":852,"x_min":0,"x_max":0,"o":"m 276 111 l 540 405 b 741 771 700 582 747 651 b 434 1057 736 946 602 1056 b 111 748 253 1059 109 934 l 233 748 b 429 946 231 872 318 948 b 622 752 535 944 622 880 b 460 477 622 679 595 628 l 24 0 l 774 0 l 774 111 z "},"3":{"ha":852,"x_min":0,"x_max":0,"o":"m 411 615 l 384 615 l 717 1042 l 95 1042 l 95 932 l 500 932 l 168 503 l 418 503 b 628 309 535 503 628 425 b 417 95 628 191 535 95 b 212 290 306 95 212 181 l 95 288 b 417 -14 95 122 240 -14 b 741 304 599 -14 741 128 b 411 615 741 483 595 615 z "},"4":{"ha":863,"x_min":0,"x_max":0,"o":"m 767 330 l 658 330 l 658 1042 l 521 1042 l 43 219 l 547 219 l 547 0 l 658 0 l 658 219 l 767 219 z m 215 330 l 547 913 l 547 330 z "},"5":{"ha":873,"x_min":0,"x_max":0,"o":"m 443 689 b 243 627 368 689 297 667 l 281 927 l 715 927 l 715 1038 l 182 1038 l 123 552 l 220 495 b 420 578 271 547 342 578 b 665 337 556 578 665 481 b 403 97 665 203 571 97 b 97 252 302 97 179 135 l 87 252 l 73 120 b 406 -14 144 36 278 -14 b 776 340 632 -14 776 137 b 443 689 776 540 635 689 z "},"6":{"ha":920,"x_min":0,"x_max":0,"o":"m 825 359 b 474 693 814 564 632 694 b 387 677 439 693 410 686 l 693 1042 l 554 1042 l 186 578 b 97 326 130 509 92 424 b 477 -10 106 132 274 -21 b 825 359 675 0 833 161 z m 476 97 b 207 328 328 89 215 186 b 446 599 198 476 299 590 b 715 358 592 608 707 505 b 476 97 724 217 623 106 z "},"7":{"ha":809,"x_min":0,"x_max":0,"o":"m 71 1042 l 71 931 l 623 931 l 90 0 l 220 0 l 764 969 l 764 1042 z "},"8":{"ha":814,"x_min":0,"x_max":0,"o":"m 557 580 b 679 797 632 623 679 703 b 408 1056 679 943 563 1056 b 135 797 253 1056 135 943 b 259 580 135 703 184 625 b 76 300 149 530 76 425 b 406 -14 76 125 220 -14 b 740 300 595 -14 740 125 b 557 580 740 425 667 530 z m 408 950 b 576 780 502 950 576 875 b 408 613 576 686 502 613 b 238 780 313 613 238 686 b 408 950 238 875 313 950 z m 406 85 b 188 307 285 85 188 186 b 406 528 188 431 285 528 b 627 307 530 528 627 431 b 406 85 627 186 530 85 z "},"9":{"ha":920,"x_min":0,"x_max":0,"o":"m 825 715 b 444 1052 814 910 646 1063 b 97 682 247 1042 89 880 b 448 349 106 477 288 347 b 533 363 483 349 510 356 l 227 0 l 368 0 l 734 464 b 825 715 792 533 828 618 z m 476 443 b 205 684 328 434 214 536 b 446 944 196 825 297 936 b 714 714 592 953 705 856 b 476 443 722 566 622 451 z "},"A":{"ha":877,"x_min":0,"x_max":0,"o":"m 755 0 l 877 0 l 500 1042 l 377 1042 l 0 0 l 122 0 l 207 243 l 670 243 z m 243 349 l 439 910 l 634 349 z "},"Á":{"ha":877,"x_min":0,"x_max":0,"o":"m 674 1389 l 549 1389 l 396 1132 l 469 1132 z m 755 0 l 877 0 l 500 1042 l 377 1042 l 0 0 l 122 0 l 207 243 l 670 243 z m 243 349 l 439 910 l 634 349 z "},"Ă":{"ha":877,"x_min":0,"x_max":0,"o":"m 438 1134 b 667 1345 569 1134 667 1217 l 599 1345 b 438 1203 599 1267 531 1203 b 278 1345 345 1203 278 1267 l 210 1345 b 438 1134 210 1217 307 1134 z m 755 0 l 877 0 l 500 1042 l 377 1042 l 0 0 l 122 0 l 207 243 l 670 243 z m 243 349 l 439 910 l 634 349 z "},"Ǎ":{"ha":877,"x_min":0,"x_max":0,"o":"m 495 1132 l 632 1389 l 547 1389 l 439 1205 l 332 1389 l 248 1389 l 384 1132 z m 755 0 l 877 0 l 500 1042 l 377 1042 l 0 0 l 122 0 l 207 243 l 670 243 z m 243 349 l 439 910 l 634 349 z "},"Â":{"ha":877,"x_min":0,"x_max":0,"o":"m 439 1318 l 547 1132 l 632 1132 l 495 1389 l 384 1389 l 248 1132 l 332 1132 z m 755 0 l 877 0 l 500 1042 l 377 1042 l 0 0 l 122 0 l 207 243 l 670 243 z m 243 349 l 439 910 l 634 349 z "},"Ä":{"ha":877,"x_min":0,"x_max":0,"o":"m 314 1172 b 389 1245 354 1172 389 1205 b 314 1319 389 1288 354 1319 b 238 1245 273 1319 238 1288 b 314 1172 238 1205 273 1172 z m 566 1172 b 641 1245 608 1172 641 1205 b 566 1319 641 1288 608 1319 b 491 1245 526 1319 491 1288 b 566 1172 491 1205 526 1172 z m 755 0 l 877 0 l 500 1042 l 377 1042 l 0 0 l 122 0 l 207 243 l 670 243 z m 243 349 l 439 910 l 634 349 z "},"À":{"ha":877,"x_min":0,"x_max":0,"o":"m 483 1132 l 330 1389 l 205 1389 l 410 1132 z m 755 0 l 877 0 l 500 1042 l 377 1042 l 0 0 l 122 0 l 207 243 l 670 243 z m 243 349 l 439 910 l 634 349 z "},"Ā":{"ha":877,"x_min":0,"x_max":0,"o":"m 625 1259 l 252 1259 l 252 1186 l 625 1186 z m 755 0 l 877 0 l 500 1042 l 377 1042 l 0 0 l 122 0 l 207 243 l 670 243 z m 243 349 l 439 910 l 634 349 z "},"Ą":{"ha":877,"x_min":0,"x_max":0,"o":"m 925 -236 b 795 -300 894 -278 847 -300 b 701 -207 734 -300 701 -260 b 877 0 701 -111 785 -54 l 500 1042 l 377 1042 l 0 0 l 122 0 l 207 243 l 670 243 l 755 0 l 788 0 b 625 -215 694 -61 625 -125 b 780 -359 625 -304 686 -356 b 964 -290 849 -363 911 -340 z m 243 349 l 439 910 l 634 349 z "},"Å":{"ha":877,"x_min":0,"x_max":0,"o":"m 755 0 l 877 0 l 514 1005 b 583 1128 556 1030 583 1076 b 441 1273 583 1208 519 1273 b 295 1128 361 1273 295 1208 b 365 1007 295 1078 323 1033 l 0 0 l 122 0 l 207 243 l 670 243 z m 441 1215 b 524 1128 486 1215 524 1175 b 441 1043 524 1080 486 1043 b 356 1128 392 1043 356 1080 b 441 1215 356 1175 392 1215 z m 243 349 l 439 910 l 634 349 z "},"Ã":{"ha":877,"x_min":0,"x_max":0,"o":"m 347 1273 b 405 1234 370 1273 387 1264 b 531 1158 431 1196 467 1158 b 679 1345 627 1158 679 1241 l 599 1345 b 531 1238 599 1274 575 1238 b 470 1276 500 1238 484 1257 b 344 1352 441 1318 405 1352 b 198 1165 253 1352 198 1271 l 278 1165 b 347 1273 278 1226 302 1273 z m 755 0 l 877 0 l 500 1042 l 377 1042 l 0 0 l 122 0 l 207 243 l 670 243 z m 243 349 l 439 910 l 634 349 z "},"Æ":{"ha":1233,"x_min":0,"x_max":0,"o":"m 1127 931 l 1127 1042 l 418 1042 l 0 0 l 127 0 l 224 248 l 559 248 l 559 0 l 1127 0 l 1127 111 l 668 111 l 668 465 l 1068 465 l 1068 576 l 668 576 l 668 931 z m 266 354 l 498 946 l 559 946 l 559 354 z "},"B":{"ha":908,"x_min":0,"x_max":0,"o":"m 641 528 b 793 764 733 569 793 653 b 505 1042 793 927 665 1042 l 127 1042 l 127 0 l 542 0 b 826 274 700 0 826 113 b 641 528 826 401 750 491 z m 682 755 b 493 575 682 653 597 575 l 236 575 l 236 931 l 493 931 b 682 755 597 931 682 858 z m 528 111 l 236 111 l 236 467 l 528 467 b 715 286 630 467 715 389 b 528 111 715 184 630 111 z "},"C":{"ha":1142,"x_min":0,"x_max":0,"o":"m 620 -14 b 1085 257 819 -14 993 95 l 990 311 b 620 97 918 182 780 97 b 196 521 385 97 196 285 b 620 944 196 757 385 944 b 990 731 780 944 918 859 l 1085 785 b 620 1056 993 946 819 1056 b 85 521 325 1056 85 816 b 620 -14 85 226 325 -14 z "},"Ć":{"ha":1142,"x_min":0,"x_max":0,"o":"m 576 1132 l 649 1132 l 854 1389 l 729 1389 z m 620 -14 b 1085 257 819 -14 993 95 l 990 311 b 620 97 918 182 780 97 b 196 521 385 97 196 285 b 620 944 196 757 385 944 b 990 731 780 944 918 859 l 1085 785 b 620 1056 993 946 819 1056 b 85 521 325 1056 85 816 b 620 -14 85 226 325 -14 z "},"Č":{"ha":1142,"x_min":0,"x_max":0,"o":"m 564 1132 l 675 1132 l 813 1389 l 727 1389 l 620 1205 l 512 1389 l 429 1389 z m 620 -14 b 1085 257 819 -14 993 95 l 990 311 b 620 97 918 182 780 97 b 196 521 385 97 196 285 b 620 944 196 757 385 944 b 990 731 780 944 918 859 l 1085 785 b 620 1056 993 946 819 1056 b 85 521 325 1056 85 816 b 620 -14 85 226 325 -14 z "},"Ç":{"ha":1142,"x_min":0,"x_max":0,"o":"m 620 97 b 196 521 385 97 196 285 b 620 944 196 757 385 944 b 990 731 780 944 918 859 l 1085 785 b 620 1056 993 946 819 1056 b 85 521 325 1056 85 816 b 580 -12 85 240 304 7 l 526 -122 l 578 -156 b 715 -217 655 -127 715 -155 b 637 -297 715 -262 681 -297 b 536 -247 602 -297 557 -274 l 477 -271 b 637 -361 503 -321 575 -361 b 780 -217 719 -361 780 -297 b 608 -92 780 -130 703 -73 l 646 -14 b 1085 257 835 -3 997 102 l 990 311 b 620 97 918 182 780 97 z "},"Ċ":{"ha":1142,"x_min":0,"x_max":0,"o":"m 620 1146 b 694 1220 660 1146 694 1179 b 620 1295 694 1262 660 1295 b 545 1220 580 1295 545 1262 b 620 1146 545 1179 580 1146 z m 620 -14 b 1085 257 819 -14 993 95 l 990 311 b 620 97 918 182 780 97 b 196 521 385 97 196 285 b 620 944 196 757 385 944 b 990 731 780 944 918 859 l 1085 785 b 620 1056 993 946 819 1056 b 85 521 325 1056 85 816 b 620 -14 85 226 325 -14 z "},"D":{"ha":1017,"x_min":0,"x_max":0,"o":"m 127 0 l 411 0 b 932 521 698 0 932 233 b 411 1042 932 809 698 1042 l 127 1042 z m 236 111 l 236 931 l 410 931 b 821 521 641 931 821 755 b 410 111 821 286 641 111 z "},"Ð":{"ha":1017,"x_min":0,"x_max":0,"o":"m 411 1042 l 127 1042 l 127 575 l 19 575 l 19 470 l 127 470 l 127 0 l 411 0 b 932 521 698 0 932 233 b 411 1042 932 809 698 1042 z m 410 111 l 236 111 l 236 470 l 422 470 l 422 575 l 236 575 l 236 931 l 410 931 b 821 521 641 931 821 755 b 410 111 821 286 641 111 z "},"Ď":{"ha":1017,"x_min":0,"x_max":0,"o":"m 354 1132 l 465 1132 l 602 1389 l 517 1389 l 410 1205 l 302 1389 l 219 1389 z m 127 0 l 411 0 b 932 521 698 0 932 233 b 411 1042 932 809 698 1042 l 127 1042 z m 236 111 l 236 931 l 410 931 b 821 521 641 931 821 755 b 410 111 821 286 641 111 z "},"Đ":{"ha":1017,"x_min":0,"x_max":0,"o":"m 411 1042 l 127 1042 l 127 575 l 19 575 l 19 470 l 127 470 l 127 0 l 411 0 b 932 521 698 0 932 233 b 411 1042 932 809 698 1042 z m 410 111 l 236 111 l 236 470 l 422 470 l 422 575 l 236 575 l 236 931 l 410 931 b 821 521 641 931 821 755 b 410 111 821 286 641 111 z "},"E":{"ha":809,"x_min":0,"x_max":0,"o":"m 705 934 l 705 1042 l 135 1042 l 135 0 l 705 0 l 705 108 l 247 108 l 247 467 l 646 467 l 646 575 l 247 575 l 247 934 z "},"É":{"ha":809,"x_min":0,"x_max":0,"o":"m 655 1389 l 530 1389 l 377 1132 l 450 1132 z m 705 934 l 705 1042 l 135 1042 l 135 0 l 705 0 l 705 108 l 247 108 l 247 467 l 646 467 l 646 575 l 247 575 l 247 934 z "},"Ě":{"ha":809,"x_min":0,"x_max":0,"o":"m 476 1132 l 613 1389 l 528 1389 l 420 1205 l 313 1389 l 229 1389 l 365 1132 z m 705 934 l 705 1042 l 135 1042 l 135 0 l 705 0 l 705 108 l 247 108 l 247 467 l 646 467 l 646 575 l 247 575 l 247 934 z "},"Ê":{"ha":809,"x_min":0,"x_max":0,"o":"m 420 1318 l 528 1132 l 613 1132 l 476 1389 l 365 1389 l 229 1132 l 313 1132 z m 705 934 l 705 1042 l 135 1042 l 135 0 l 705 0 l 705 108 l 247 108 l 247 467 l 646 467 l 646 575 l 247 575 l 247 934 z "},"Ë":{"ha":809,"x_min":0,"x_max":0,"o":"m 295 1172 b 370 1245 335 1172 370 1205 b 295 1319 370 1288 335 1319 b 219 1245 253 1319 219 1288 b 295 1172 219 1205 253 1172 z m 547 1172 b 622 1245 589 1172 622 1205 b 547 1319 622 1288 589 1319 b 472 1245 507 1319 472 1288 b 547 1172 472 1205 507 1172 z m 705 934 l 705 1042 l 135 1042 l 135 0 l 705 0 l 705 108 l 247 108 l 247 467 l 646 467 l 646 575 l 247 575 l 247 934 z "},"Ė":{"ha":809,"x_min":0,"x_max":0,"o":"m 420 1146 b 495 1220 460 1146 495 1179 b 420 1295 495 1262 460 1295 b 345 1220 380 1295 345 1262 b 420 1146 345 1179 380 1146 z m 705 934 l 705 1042 l 135 1042 l 135 0 l 705 0 l 705 108 l 247 108 l 247 467 l 646 467 l 646 575 l 247 575 l 247 934 z "},"È":{"ha":809,"x_min":0,"x_max":0,"o":"m 464 1132 l 311 1389 l 186 1389 l 391 1132 z m 705 934 l 705 1042 l 135 1042 l 135 0 l 705 0 l 705 108 l 247 108 l 247 467 l 646 467 l 646 575 l 247 575 l 247 934 z "},"Ē":{"ha":809,"x_min":0,"x_max":0,"o":"m 606 1259 l 233 1259 l 233 1186 l 606 1186 z m 705 934 l 705 1042 l 135 1042 l 135 0 l 705 0 l 705 108 l 247 108 l 247 467 l 646 467 l 646 575 l 247 575 l 247 934 z "},"Ę":{"ha":809,"x_min":0,"x_max":0,"o":"m 753 -236 b 623 -300 722 -278 675 -300 b 530 -207 563 -300 530 -260 b 705 0 530 -111 613 -54 l 705 108 l 247 108 l 247 467 l 646 467 l 646 575 l 247 575 l 247 934 l 705 934 l 705 1042 l 135 1042 l 135 0 l 616 0 b 453 -215 523 -61 453 -125 b 608 -359 453 -304 514 -356 b 792 -290 677 -363 740 -340 z "},"F":{"ha":736,"x_min":0,"x_max":0,"o":"m 705 934 l 705 1042 l 135 1042 l 135 0 l 247 0 l 247 467 l 646 467 l 646 575 l 247 575 l 247 934 z "},"G":{"ha":1248,"x_min":0,"x_max":0,"o":"m 623 552 l 623 448 l 1042 448 b 625 97 1009 247 835 97 b 201 521 391 97 201 285 b 625 944 201 757 391 944 b 993 731 783 944 922 859 l 1089 785 b 625 1056 998 946 825 1056 b 90 521 328 1056 90 816 b 625 -14 90 226 328 -14 b 1160 521 920 -14 1160 226 l 1160 552 z "},"Ğ":{"ha":1248,"x_min":0,"x_max":0,"o":"m 623 1134 b 852 1345 755 1134 852 1217 l 785 1345 b 623 1203 785 1267 717 1203 b 464 1345 531 1203 464 1267 l 396 1345 b 623 1134 396 1217 493 1134 z m 623 552 l 623 448 l 1042 448 b 625 97 1009 247 835 97 b 201 521 391 97 201 285 b 625 944 201 757 391 944 b 993 731 783 944 922 859 l 1089 785 b 625 1056 998 946 825 1056 b 90 521 328 1056 90 816 b 625 -14 90 226 328 -14 b 1160 521 920 -14 1160 226 l 1160 552 z "},"Ģ":{"ha":1248,"x_min":0,"x_max":0,"o":"m 623 552 l 623 448 l 1042 448 b 625 97 1009 247 835 97 b 201 521 391 97 201 285 b 625 944 201 757 391 944 b 993 731 783 944 922 859 l 1089 785 b 625 1056 998 946 825 1056 b 90 521 328 1056 90 816 b 625 -14 90 226 328 -14 b 1160 521 920 -14 1160 226 l 1160 552 z m 453 -328 l 530 -328 l 693 -83 l 557 -83 z "},"Ġ":{"ha":1248,"x_min":0,"x_max":0,"o":"m 625 1146 b 700 1220 665 1146 700 1179 b 625 1295 700 1262 665 1295 b 550 1220 585 1295 550 1262 b 625 1146 550 1179 585 1146 z m 623 552 l 623 448 l 1042 448 b 625 97 1009 247 835 97 b 201 521 391 97 201 285 b 625 944 201 757 391 944 b 993 731 783 944 922 859 l 1089 785 b 625 1056 998 946 825 1056 b 90 521 328 1056 90 816 b 625 -14 90 226 328 -14 b 1160 521 920 -14 1160 226 l 1160 552 z "},"H":{"ha":1050,"x_min":0,"x_max":0,"o":"m 813 1042 l 813 576 l 238 576 l 238 1042 l 127 1042 l 127 0 l 238 0 l 238 465 l 813 465 l 813 0 l 924 0 l 924 1042 z "},"Ħ":{"ha":1050,"x_min":0,"x_max":0,"o":"m 1019 851 l 924 851 l 924 1042 l 813 1042 l 813 851 l 238 851 l 238 1042 l 127 1042 l 127 851 l 30 851 l 30 774 l 127 774 l 127 0 l 238 0 l 238 465 l 813 465 l 813 0 l 924 0 l 924 774 l 1019 774 z m 813 576 l 238 576 l 238 774 l 813 774 z "},"I":{"ha":380,"x_min":0,"x_max":0,"o":"m 135 0 l 247 0 l 247 1042 l 135 1042 z "},"Í":{"ha":380,"x_min":0,"x_max":0,"o":"m 148 1132 l 220 1132 l 425 1389 l 300 1389 z m 135 0 l 247 0 l 247 1042 l 135 1042 z "},"Ǐ":{"ha":380,"x_min":0,"x_max":0,"o":"m 135 1132 l 247 1132 l 384 1389 l 299 1389 l 191 1205 l 83 1389 l 0 1389 z m 135 0 l 247 0 l 247 1042 l 135 1042 z "},"Î":{"ha":380,"x_min":0,"x_max":0,"o":"m 83 1132 l 191 1318 l 299 1132 l 384 1132 l 247 1389 l 135 1389 l 0 1132 z m 135 0 l 247 0 l 247 1042 l 135 1042 z "},"Ï":{"ha":380,"x_min":0,"x_max":0,"o":"m 66 1172 b 141 1245 106 1172 141 1205 b 66 1319 141 1288 106 1319 b -10 1245 24 1319 -10 1288 b 66 1172 -10 1205 24 1172 z m 318 1172 b 392 1245 359 1172 392 1205 b 318 1319 392 1288 359 1319 b 243 1245 278 1319 243 1288 b 318 1172 243 1205 278 1172 z m 135 0 l 247 0 l 247 1042 l 135 1042 z "},"İ":{"ha":380,"x_min":0,"x_max":0,"o":"m 191 1146 b 266 1220 231 1146 266 1179 b 191 1295 266 1262 231 1295 b 116 1220 151 1295 116 1262 b 191 1146 116 1179 151 1146 z m 135 0 l 247 0 l 247 1042 l 135 1042 z "},"Ì":{"ha":380,"x_min":0,"x_max":0,"o":"m 234 1132 l 82 1389 l -43 1389 l 161 1132 z m 135 0 l 247 0 l 247 1042 l 135 1042 z "},"Ī":{"ha":380,"x_min":0,"x_max":0,"o":"m 3 1186 l 377 1186 l 377 1259 l 3 1259 z m 135 0 l 247 0 l 247 1042 l 135 1042 z "},"Į":{"ha":380,"x_min":0,"x_max":0,"o":"m 295 -236 b 165 -300 264 -278 217 -300 b 71 -207 104 -300 71 -260 b 247 0 71 -111 155 -54 l 247 1042 l 135 1042 l 135 0 l 158 0 b -5 -215 64 -61 -5 -125 b 149 -359 -5 -304 56 -356 b 333 -290 219 -363 281 -340 z "},"J":{"ha":688,"x_min":0,"x_max":0,"o":"m 583 1042 l 106 1042 l 106 931 l 472 931 l 472 264 b 319 97 472 161 408 97 b 170 240 240 97 179 153 l 57 215 b 319 -14 73 73 174 -14 b 583 252 477 -14 583 89 z "},"K":{"ha":891,"x_min":0,"x_max":0,"o":"m 748 0 l 903 0 l 408 561 l 884 1042 l 729 1042 l 311 615 l 238 615 l 238 1042 l 127 1042 l 127 0 l 238 0 l 238 510 l 313 510 z "},"Ķ":{"ha":891,"x_min":0,"x_max":0,"o":"m 408 561 l 884 1042 l 729 1042 l 311 615 l 238 615 l 238 1042 l 127 1042 l 127 0 l 238 0 l 238 510 l 313 510 l 748 0 l 903 0 z m 276 -328 l 352 -328 l 516 -83 l 380 -83 z "},"L":{"ha":641,"x_min":0,"x_max":0,"o":"m 238 111 l 238 1042 l 127 1042 l 127 0 l 625 0 l 625 111 z "},"Ĺ":{"ha":641,"x_min":0,"x_max":0,"o":"m 417 1389 l 292 1389 l 139 1132 l 212 1132 z m 238 111 l 238 1042 l 127 1042 l 127 0 l 625 0 l 625 111 z "},"Ľ":{"ha":641,"x_min":0,"x_max":0,"o":"m 238 111 l 238 1042 l 127 1042 l 127 0 l 625 0 l 625 111 z m 615 1042 l 491 1042 l 378 623 l 457 623 z "},"Ļ":{"ha":641,"x_min":0,"x_max":0,"o":"m 238 111 l 238 1042 l 127 1042 l 127 0 l 625 0 l 625 111 z m 205 -328 l 281 -328 l 444 -83 l 309 -83 z "},"Ł":{"ha":641,"x_min":0,"x_max":0,"o":"m 238 111 l 238 521 l 399 693 l 339 743 l 238 635 l 238 1042 l 127 1042 l 127 517 l -31 349 l 28 299 l 127 403 l 127 0 l 625 0 l 625 111 z "},"M":{"ha":1288,"x_min":0,"x_max":0,"o":"m 1045 1042 l 644 134 l 245 1042 l 127 1042 l 127 0 l 238 0 l 238 823 l 597 0 l 689 0 l 1052 819 l 1052 0 l 1161 0 l 1161 1042 z "},"N":{"ha":1111,"x_min":0,"x_max":0,"o":"m 875 1042 l 875 186 l 231 1042 l 127 1042 l 127 0 l 238 0 l 238 856 l 880 0 l 984 0 l 984 1042 z "},"Ń":{"ha":1111,"x_min":0,"x_max":0,"o":"m 786 1389 l 661 1389 l 509 1132 l 582 1132 z m 875 1042 l 875 186 l 231 1042 l 127 1042 l 127 0 l 238 0 l 238 856 l 880 0 l 984 0 l 984 1042 z "},"Ň":{"ha":1111,"x_min":0,"x_max":0,"o":"m 608 1132 l 745 1389 l 660 1389 l 552 1205 l 444 1389 l 361 1389 l 497 1132 z m 875 1042 l 875 186 l 231 1042 l 127 1042 l 127 0 l 238 0 l 238 856 l 880 0 l 984 0 l 984 1042 z "},"Ņ":{"ha":1111,"x_min":0,"x_max":0,"o":"m 875 1042 l 875 186 l 231 1042 l 127 1042 l 127 0 l 238 0 l 238 856 l 880 0 l 984 0 l 984 1042 z m 389 -328 l 465 -328 l 628 -83 l 493 -83 z "},"Ŋ":{"ha":1111,"x_min":0,"x_max":0,"o":"m 875 1042 l 875 186 l 231 1042 l 127 1042 l 127 0 l 238 0 l 238 856 l 880 0 l 880 -144 b 790 -247 880 -233 839 -248 l 790 -345 b 984 -153 924 -347 984 -299 l 984 0 l 984 1042 z "},"Ñ":{"ha":1111,"x_min":0,"x_max":0,"o":"m 460 1273 b 517 1234 483 1273 500 1264 b 644 1158 543 1196 580 1158 b 792 1345 740 1158 792 1241 l 712 1345 b 644 1238 712 1274 688 1238 b 583 1276 613 1238 597 1257 b 457 1352 554 1318 517 1352 b 311 1165 366 1352 311 1271 l 391 1165 b 460 1273 391 1226 415 1273 z m 875 1042 l 875 186 l 231 1042 l 127 1042 l 127 0 l 238 0 l 238 856 l 880 0 l 984 0 l 984 1042 z "},"O":{"ha":1241,"x_min":0,"x_max":0,"o":"m 620 -14 b 1155 521 917 -14 1155 226 b 620 1056 1155 816 917 1056 b 85 521 325 1056 85 816 b 620 -14 85 226 325 -14 z m 620 97 b 196 521 385 97 196 285 b 620 944 196 757 385 944 b 1043 521 856 944 1043 757 b 620 97 1043 285 856 97 z "},"Ó":{"ha":1241,"x_min":0,"x_max":0,"o":"m 576 1132 l 649 1132 l 854 1389 l 729 1389 z m 620 -14 b 1155 521 917 -14 1155 226 b 620 1056 1155 816 917 1056 b 85 521 325 1056 85 816 b 620 -14 85 226 325 -14 z m 620 97 b 196 521 385 97 196 285 b 620 944 196 757 385 944 b 1043 521 856 944 1043 757 b 620 97 1043 285 856 97 z "},"Ǒ":{"ha":1241,"x_min":0,"x_max":0,"o":"m 564 1132 l 675 1132 l 813 1389 l 727 1389 l 620 1205 l 512 1389 l 429 1389 z m 620 -14 b 1155 521 917 -14 1155 226 b 620 1056 1155 816 917 1056 b 85 521 325 1056 85 816 b 620 -14 85 226 325 -14 z m 620 97 b 196 521 385 97 196 285 b 620 944 196 757 385 944 b 1043 521 856 944 1043 757 b 620 97 1043 285 856 97 z "},"Ô":{"ha":1241,"x_min":0,"x_max":0,"o":"m 512 1132 l 620 1318 l 727 1132 l 813 1132 l 675 1389 l 564 1389 l 429 1132 z m 620 -14 b 1155 521 917 -14 1155 226 b 620 1056 1155 816 917 1056 b 85 521 325 1056 85 816 b 620 -14 85 226 325 -14 z m 620 97 b 196 521 385 97 196 285 b 620 944 196 757 385 944 b 1043 521 856 944 1043 757 b 620 97 1043 285 856 97 z "},"Ö":{"ha":1241,"x_min":0,"x_max":0,"o":"m 495 1172 b 569 1245 535 1172 569 1205 b 495 1319 569 1288 535 1319 b 418 1245 453 1319 418 1288 b 495 1172 418 1205 453 1172 z m 747 1172 b 821 1245 788 1172 821 1205 b 747 1319 821 1288 788 1319 b 672 1245 707 1319 672 1288 b 747 1172 672 1205 707 1172 z m 620 -14 b 1155 521 917 -14 1155 226 b 620 1056 1155 816 917 1056 b 85 521 325 1056 85 816 b 620 -14 85 226 325 -14 z m 620 97 b 196 521 385 97 196 285 b 620 944 196 757 385 944 b 1043 521 856 944 1043 757 b 620 97 1043 285 856 97 z "},"Ò":{"ha":1241,"x_min":0,"x_max":0,"o":"m 663 1132 l 510 1389 l 385 1389 l 590 1132 z m 620 -14 b 1155 521 917 -14 1155 226 b 620 1056 1155 816 917 1056 b 85 521 325 1056 85 816 b 620 -14 85 226 325 -14 z m 620 97 b 196 521 385 97 196 285 b 620 944 196 757 385 944 b 1043 521 856 944 1043 757 b 620 97 1043 285 856 97 z "},"Ő":{"ha":1241,"x_min":0,"x_max":0,"o":"m 460 1132 l 533 1132 l 736 1389 l 611 1389 z m 686 1132 l 759 1132 l 962 1389 l 837 1389 z m 620 -14 b 1155 521 917 -14 1155 226 b 620 1056 1155 816 917 1056 b 85 521 325 1056 85 816 b 620 -14 85 226 325 -14 z m 620 97 b 196 521 385 97 196 285 b 620 944 196 757 385 944 b 1043 521 856 944 1043 757 b 620 97 1043 285 856 97 z "},"Ō":{"ha":1241,"x_min":0,"x_max":0,"o":"m 432 1186 l 806 1186 l 806 1259 l 432 1259 z m 620 -14 b 1155 521 917 -14 1155 226 b 620 1056 1155 816 917 1056 b 85 521 325 1056 85 816 b 620 -14 85 226 325 -14 z m 620 97 b 196 521 385 97 196 285 b 620 944 196 757 385 944 b 1043 521 856 944 1043 757 b 620 97 1043 285 856 97 z "},"Ø":{"ha":1241,"x_min":0,"x_max":0,"o":"m 965 931 l 1049 1050 l 969 1102 l 887 984 b 620 1056 809 1030 717 1056 b 85 521 325 1056 85 816 b 276 111 85 356 160 208 l 191 -12 l 273 -62 l 356 56 b 620 -14 434 12 524 -14 b 1155 521 917 -14 1155 226 b 965 931 1155 686 1082 832 z m 196 521 b 620 944 196 757 385 944 b 823 894 694 944 762 925 l 340 201 b 196 521 252 280 196 392 z m 620 97 b 418 148 547 97 479 115 l 901 839 b 1043 521 988 762 1043 648 b 620 97 1043 285 856 97 z "},"Õ":{"ha":1241,"x_min":0,"x_max":0,"o":"m 712 1158 b 859 1345 807 1158 859 1241 l 780 1345 b 712 1238 780 1274 755 1238 b 651 1276 681 1238 665 1257 b 524 1352 622 1318 585 1352 b 378 1165 434 1352 378 1271 l 458 1165 b 528 1273 458 1226 483 1273 b 585 1234 550 1273 568 1264 b 712 1158 611 1196 648 1158 z m 620 -14 b 1155 521 917 -14 1155 226 b 620 1056 1155 816 917 1056 b 85 521 325 1056 85 816 b 620 -14 85 226 325 -14 z m 620 97 b 196 521 385 97 196 285 b 620 944 196 757 385 944 b 1043 521 856 944 1043 757 b 620 97 1043 285 856 97 z "},"Œ":{"ha":1453,"x_min":0,"x_max":0,"o":"m 1349 934 l 1349 1042 l 797 1042 l 797 1026 b 620 1056 741 1045 682 1056 b 85 521 325 1056 85 816 b 620 -14 85 226 325 -14 b 797 16 682 -14 741 -3 l 797 0 l 1349 0 l 1349 108 l 889 108 l 889 467 l 1290 467 l 1290 575 l 889 575 l 889 934 z m 622 94 b 193 521 384 94 193 285 b 622 948 193 757 384 948 b 797 911 684 948 743 934 l 797 130 b 622 94 743 108 684 94 z "},"P":{"ha":819,"x_min":0,"x_max":0,"o":"m 500 1042 l 127 1042 l 127 0 l 238 0 l 238 464 l 500 464 b 790 752 661 464 790 590 b 500 1042 790 911 661 1042 z m 490 569 l 238 569 l 238 934 l 490 934 b 679 750 594 934 679 861 b 490 569 679 635 594 569 z "},"Þ":{"ha":852,"x_min":0,"x_max":0,"o":"m 507 898 l 245 898 l 245 1042 l 137 1042 l 137 898 l 137 0 l 245 0 l 245 319 l 507 319 b 797 606 667 319 797 446 b 507 898 797 767 667 898 z m 498 427 l 245 427 l 245 790 l 498 790 b 686 609 606 790 686 715 b 498 427 686 502 608 427 z "},"Q":{"ha":1248,"x_min":0,"x_max":0,"o":"m 1194 104 l 1038 104 l 885 56 b 1155 521 1047 148 1155 321 b 620 1056 1155 816 917 1056 b 85 521 325 1056 85 816 b 620 -14 85 226 325 -14 b 741 0 661 -14 703 -9 l 1194 0 z m 196 521 b 620 944 196 757 385 944 b 1043 521 856 944 1043 757 b 620 97 1043 285 856 97 b 196 521 385 97 196 285 z "},"R":{"ha":872,"x_min":0,"x_max":0,"o":"m 549 476 b 790 750 686 495 790 609 b 500 1042 790 913 660 1042 l 127 1042 l 127 0 l 238 0 l 238 470 l 434 470 l 729 0 l 856 0 z m 238 576 l 238 931 l 493 931 b 679 753 597 931 679 858 b 493 576 679 648 599 576 z "},"Ŕ":{"ha":872,"x_min":0,"x_max":0,"o":"m 670 1389 l 545 1389 l 392 1132 l 465 1132 z m 549 476 b 790 750 686 495 790 609 b 500 1042 790 913 660 1042 l 127 1042 l 127 0 l 238 0 l 238 470 l 434 470 l 729 0 l 856 0 z m 238 576 l 238 931 l 493 931 b 679 753 597 931 679 858 b 493 576 679 648 599 576 z "},"Ř":{"ha":872,"x_min":0,"x_max":0,"o":"m 491 1132 l 628 1389 l 543 1389 l 436 1205 l 328 1389 l 245 1389 l 380 1132 z m 549 476 b 790 750 686 495 790 609 b 500 1042 790 913 660 1042 l 127 1042 l 127 0 l 238 0 l 238 470 l 434 470 l 729 0 l 856 0 z m 238 576 l 238 931 l 493 931 b 679 753 597 931 679 858 b 493 576 679 648 599 576 z "},"Ŗ":{"ha":872,"x_min":0,"x_max":0,"o":"m 549 476 b 790 750 686 495 790 609 b 500 1042 790 913 660 1042 l 127 1042 l 127 0 l 238 0 l 238 470 l 434 470 l 729 0 l 856 0 z m 238 576 l 238 931 l 493 931 b 679 753 597 931 679 858 b 493 576 679 648 599 576 z m 264 -328 l 340 -328 l 503 -83 l 368 -83 z "},"S":{"ha":760,"x_min":0,"x_max":0,"o":"m 389 -14 b 710 274 566 -14 710 92 b 203 790 710 628 203 542 b 385 944 203 894 288 944 b 573 852 465 944 531 911 l 660 925 b 382 1056 602 998 502 1056 b 92 781 222 1056 92 951 b 599 271 92 446 599 530 b 391 97 599 160 507 97 b 151 257 273 97 188 161 l 50 198 b 389 -14 104 69 234 -14 z "},"Ś":{"ha":760,"x_min":0,"x_max":0,"o":"m 344 1132 l 417 1132 l 622 1389 l 497 1389 z m 389 -14 b 710 274 566 -14 710 92 b 203 790 710 628 203 542 b 385 944 203 894 288 944 b 573 852 465 944 531 911 l 660 925 b 382 1056 602 998 502 1056 b 92 781 222 1056 92 951 b 599 271 92 446 599 530 b 391 97 599 160 507 97 b 151 257 273 97 188 161 l 50 198 b 389 -14 104 69 234 -14 z "},"Š":{"ha":760,"x_min":0,"x_max":0,"o":"m 332 1132 l 443 1132 l 580 1389 l 495 1389 l 387 1205 l 280 1389 l 196 1389 z m 389 -14 b 710 274 566 -14 710 92 b 203 790 710 628 203 542 b 385 944 203 894 288 944 b 573 852 465 944 531 911 l 660 925 b 382 1056 602 998 502 1056 b 92 781 222 1056 92 951 b 599 271 92 446 599 530 b 391 97 599 160 507 97 b 151 257 273 97 188 161 l 50 198 b 389 -14 104 69 234 -14 z "},"Ş":{"ha":760,"x_min":0,"x_max":0,"o":"m 710 274 b 203 790 710 628 203 542 b 385 944 203 894 288 944 b 573 852 465 944 531 911 l 660 925 b 382 1056 602 998 502 1056 b 92 781 222 1056 92 951 b 599 271 92 446 599 530 b 391 97 599 160 507 97 b 151 257 273 97 188 161 l 50 198 b 337 -10 97 83 205 5 l 281 -122 l 333 -156 b 470 -217 410 -127 470 -155 b 392 -297 470 -262 436 -297 b 292 -247 358 -297 313 -274 l 233 -271 b 392 -361 259 -321 330 -361 b 535 -217 474 -361 535 -297 b 363 -92 535 -130 458 -73 l 401 -14 b 710 274 573 -9 710 95 z "},"Ș":{"ha":760,"x_min":0,"x_max":0,"o":"m 389 -14 b 710 274 566 -14 710 92 b 203 790 710 628 203 542 b 385 944 203 894 288 944 b 573 852 465 944 531 911 l 660 925 b 382 1056 602 998 502 1056 b 92 781 222 1056 92 951 b 599 271 92 446 599 530 b 391 97 599 160 507 97 b 151 257 273 97 188 161 l 50 198 b 389 -14 104 69 234 -14 z m 280 -328 l 443 -83 l 307 -83 l 203 -328 z "},"T":{"ha":719,"x_min":0,"x_max":0,"o":"m 703 1042 l 16 1042 l 16 931 l 304 931 l 304 0 l 415 0 l 415 931 l 703 931 z "},"Ŧ":{"ha":719,"x_min":0,"x_max":0,"o":"m 703 931 l 703 1042 l 16 1042 l 16 931 l 304 931 l 304 575 l 156 575 l 156 470 l 304 470 l 304 0 l 415 0 l 415 470 l 559 470 l 559 575 l 415 575 l 415 931 z "},"Ť":{"ha":719,"x_min":0,"x_max":0,"o":"m 415 1132 l 552 1389 l 467 1389 l 359 1205 l 252 1389 l 168 1389 l 304 1132 z m 703 1042 l 16 1042 l 16 931 l 304 931 l 304 0 l 415 0 l 415 931 l 703 931 z "},"Ţ":{"ha":719,"x_min":0,"x_max":0,"o":"m 415 0 l 415 931 l 703 931 l 703 1042 l 16 1042 l 16 931 l 304 931 l 304 0 l 326 0 l 266 -122 l 318 -156 b 455 -217 394 -127 455 -155 b 377 -297 455 -262 420 -297 b 276 -247 342 -297 297 -274 l 217 -271 b 377 -361 243 -321 314 -361 b 519 -217 458 -361 519 -297 b 347 -92 519 -130 443 -73 l 392 0 z "},"Ț":{"ha":719,"x_min":0,"x_max":0,"o":"m 16 1042 l 16 931 l 304 931 l 304 0 l 415 0 l 415 931 l 703 931 l 703 1042 z m 188 -328 l 264 -328 l 427 -83 l 292 -83 z "},"U":{"ha":1026,"x_min":0,"x_max":0,"o":"m 512 -14 b 905 342 740 -14 905 137 l 905 1042 l 793 1042 l 793 359 b 512 97 793 208 674 97 b 233 359 351 97 233 208 l 233 1042 l 122 1042 l 122 342 b 512 -14 122 137 286 -14 z "},"Ú":{"ha":1026,"x_min":0,"x_max":0,"o":"m 469 1132 l 542 1132 l 747 1389 l 622 1389 z m 512 -14 b 905 342 740 -14 905 137 l 905 1042 l 793 1042 l 793 359 b 512 97 793 208 674 97 b 233 359 351 97 233 208 l 233 1042 l 122 1042 l 122 342 b 512 -14 122 137 286 -14 z "},"Ǔ":{"ha":1026,"x_min":0,"x_max":0,"o":"m 457 1132 l 568 1132 l 705 1389 l 620 1389 l 512 1205 l 405 1389 l 321 1389 z m 512 -14 b 905 342 740 -14 905 137 l 905 1042 l 793 1042 l 793 359 b 512 97 793 208 674 97 b 233 359 351 97 233 208 l 233 1042 l 122 1042 l 122 342 b 512 -14 122 137 286 -14 z "},"Û":{"ha":1026,"x_min":0,"x_max":0,"o":"m 405 1132 l 512 1318 l 620 1132 l 705 1132 l 568 1389 l 457 1389 l 321 1132 z m 512 -14 b 905 342 740 -14 905 137 l 905 1042 l 793 1042 l 793 359 b 512 97 793 208 674 97 b 233 359 351 97 233 208 l 233 1042 l 122 1042 l 122 342 b 512 -14 122 137 286 -14 z "},"Ü":{"ha":1026,"x_min":0,"x_max":0,"o":"m 387 1172 b 462 1245 427 1172 462 1205 b 387 1319 462 1288 427 1319 b 311 1245 345 1319 311 1288 b 387 1172 311 1205 345 1172 z m 639 1172 b 714 1245 681 1172 714 1205 b 639 1319 714 1288 681 1319 b 564 1245 599 1319 564 1288 b 639 1172 564 1205 599 1172 z m 512 -14 b 905 342 740 -14 905 137 l 905 1042 l 793 1042 l 793 359 b 512 97 793 208 674 97 b 233 359 351 97 233 208 l 233 1042 l 122 1042 l 122 342 b 512 -14 122 137 286 -14 z "},"Ù":{"ha":1026,"x_min":0,"x_max":0,"o":"m 556 1132 l 403 1389 l 278 1389 l 483 1132 z m 512 -14 b 905 342 740 -14 905 137 l 905 1042 l 793 1042 l 793 359 b 512 97 793 208 674 97 b 233 359 351 97 233 208 l 233 1042 l 122 1042 l 122 342 b 512 -14 122 137 286 -14 z "},"Ű":{"ha":1026,"x_min":0,"x_max":0,"o":"m 352 1132 l 425 1132 l 628 1389 l 503 1389 z m 578 1132 l 651 1132 l 854 1389 l 729 1389 z m 512 -14 b 905 342 740 -14 905 137 l 905 1042 l 793 1042 l 793 359 b 512 97 793 208 674 97 b 233 359 351 97 233 208 l 233 1042 l 122 1042 l 122 342 b 512 -14 122 137 286 -14 z "},"Ū":{"ha":1026,"x_min":0,"x_max":0,"o":"m 325 1186 l 698 1186 l 698 1259 l 325 1259 z m 512 -14 b 905 342 740 -14 905 137 l 905 1042 l 793 1042 l 793 359 b 512 97 793 208 674 97 b 233 359 351 97 233 208 l 233 1042 l 122 1042 l 122 342 b 512 -14 122 137 286 -14 z "},"Ų":{"ha":1026,"x_min":0,"x_max":0,"o":"m 793 1042 l 793 359 b 512 97 793 208 674 97 b 233 359 351 97 233 208 l 233 1042 l 122 1042 l 122 342 b 512 -14 122 137 286 -14 b 550 -12 526 -14 538 -14 b 443 -189 486 -62 443 -118 b 597 -333 443 -278 503 -330 b 781 -264 667 -337 729 -314 l 743 -210 b 613 -274 712 -252 665 -274 b 519 -181 552 -274 519 -234 b 677 16 519 -90 592 -35 b 905 342 816 69 905 191 l 905 1042 z "},"Ů":{"ha":1026,"x_min":0,"x_max":0,"o":"m 512 1108 b 655 1252 590 1108 655 1174 b 512 1396 655 1332 590 1396 b 366 1252 432 1396 366 1332 b 512 1108 366 1174 432 1108 z m 512 1167 b 427 1252 464 1167 427 1203 b 512 1339 427 1299 464 1339 b 595 1252 557 1339 595 1299 b 512 1167 595 1203 557 1167 z m 512 -14 b 905 342 740 -14 905 137 l 905 1042 l 793 1042 l 793 359 b 512 97 793 208 674 97 b 233 359 351 97 233 208 l 233 1042 l 122 1042 l 122 342 b 512 -14 122 137 286 -14 z "},"V":{"ha":877,"x_min":0,"x_max":0,"o":"m 755 1042 l 439 142 l 123 1042 l 0 1042 l 377 0 l 500 0 l 877 1042 z "},"W":{"ha":1405,"x_min":0,"x_max":0,"o":"m 1300 1042 l 1033 186 l 780 1042 l 736 1042 l 623 1042 l 373 188 l 108 1042 l -10 1042 l 316 0 l 434 0 l 701 924 l 974 0 l 1090 0 l 1415 1042 z "},"Ẃ":{"ha":1405,"x_min":0,"x_max":0,"o":"m 939 1389 l 814 1389 l 661 1132 l 734 1132 z m 1300 1042 l 1033 186 l 780 1042 l 736 1042 l 623 1042 l 373 188 l 108 1042 l -10 1042 l 316 0 l 434 0 l 701 924 l 974 0 l 1090 0 l 1415 1042 z "},"Ŵ":{"ha":1405,"x_min":0,"x_max":0,"o":"m 705 1318 l 813 1132 l 898 1132 l 760 1389 l 649 1389 l 514 1132 l 597 1132 z m 1300 1042 l 1033 186 l 780 1042 l 736 1042 l 623 1042 l 373 188 l 108 1042 l -10 1042 l 316 0 l 434 0 l 701 924 l 974 0 l 1090 0 l 1415 1042 z "},"Ẅ":{"ha":1405,"x_min":0,"x_max":0,"o":"m 580 1172 b 655 1245 620 1172 655 1205 b 580 1319 655 1288 620 1319 b 503 1245 538 1319 503 1288 b 580 1172 503 1205 538 1172 z m 832 1172 b 906 1245 873 1172 906 1205 b 832 1319 906 1288 873 1319 b 757 1245 792 1319 757 1288 b 832 1172 757 1205 792 1172 z m 1300 1042 l 1033 186 l 780 1042 l 736 1042 l 623 1042 l 373 188 l 108 1042 l -10 1042 l 316 0 l 434 0 l 701 924 l 974 0 l 1090 0 l 1415 1042 z "},"Ẁ":{"ha":1405,"x_min":0,"x_max":0,"o":"m 748 1132 l 595 1389 l 470 1389 l 675 1132 z m 1300 1042 l 1033 186 l 780 1042 l 736 1042 l 623 1042 l 373 188 l 108 1042 l -10 1042 l 316 0 l 434 0 l 701 924 l 974 0 l 1090 0 l 1415 1042 z "},"X":{"ha":835,"x_min":0,"x_max":0,"o":"m 833 0 l 477 528 l 825 1042 l 691 1042 l 417 620 l 144 1042 l 10 1042 l 356 528 l 2 0 l 137 0 l 417 436 l 698 0 z "},"Y":{"ha":842,"x_min":0,"x_max":0,"o":"m 840 1042 l 703 1042 l 422 609 l 141 1042 l 2 1042 l 366 493 l 366 0 l 477 0 l 477 495 z "},"Ý":{"ha":842,"x_min":0,"x_max":0,"o":"m 656 1389 l 531 1389 l 378 1132 l 451 1132 z m 840 1042 l 703 1042 l 422 609 l 141 1042 l 2 1042 l 366 493 l 366 0 l 477 0 l 477 495 z "},"Ŷ":{"ha":842,"x_min":0,"x_max":0,"o":"m 422 1318 l 530 1132 l 615 1132 l 477 1389 l 366 1389 l 231 1132 l 314 1132 z m 840 1042 l 703 1042 l 422 609 l 141 1042 l 2 1042 l 366 493 l 366 0 l 477 0 l 477 495 z "},"Ÿ":{"ha":842,"x_min":0,"x_max":0,"o":"m 297 1172 b 372 1245 337 1172 372 1205 b 297 1319 372 1288 337 1319 b 220 1245 255 1319 220 1288 b 297 1172 220 1205 255 1172 z m 549 1172 b 623 1245 590 1172 623 1205 b 549 1319 623 1288 590 1319 b 474 1245 509 1319 474 1288 b 549 1172 474 1205 509 1172 z m 840 1042 l 703 1042 l 422 609 l 141 1042 l 2 1042 l 366 493 l 366 0 l 477 0 l 477 495 z "},"Ỳ":{"ha":842,"x_min":0,"x_max":0,"o":"m 465 1132 l 313 1389 l 188 1389 l 392 1132 z m 840 1042 l 703 1042 l 422 609 l 141 1042 l 2 1042 l 366 493 l 366 0 l 477 0 l 477 495 z "},"Z":{"ha":917,"x_min":0,"x_max":0,"o":"m 262 111 l 832 1042 l 106 1042 l 106 931 l 635 931 l 64 0 l 852 0 l 852 111 z "},"Ź":{"ha":917,"x_min":0,"x_max":0,"o":"m 698 1389 l 573 1389 l 420 1132 l 493 1132 z m 262 111 l 832 1042 l 106 1042 l 106 931 l 635 931 l 64 0 l 852 0 l 852 111 z "},"Ž":{"ha":917,"x_min":0,"x_max":0,"o":"m 519 1132 l 656 1389 l 571 1389 l 464 1205 l 356 1389 l 273 1389 l 408 1132 z m 262 111 l 832 1042 l 106 1042 l 106 931 l 635 931 l 64 0 l 852 0 l 852 111 z "},"Ż":{"ha":917,"x_min":0,"x_max":0,"o":"m 464 1146 b 538 1220 503 1146 538 1179 b 464 1295 538 1262 503 1295 b 389 1220 424 1295 389 1262 b 464 1146 389 1179 424 1146 z m 262 111 l 832 1042 l 106 1042 l 106 931 l 635 931 l 64 0 l 852 0 l 852 111 z "},"a":{"ha":936,"x_min":0,"x_max":0,"o":"m 872 90 b 800 181 833 90 800 116 l 800 694 l 693 694 l 693 604 b 439 708 628 668 538 708 b 78 347 240 708 78 547 b 439 -14 78 148 240 -14 b 703 106 543 -14 637 35 b 863 -14 726 35 781 -14 b 915 0 882 -14 901 -9 l 915 90 z m 439 94 b 186 347 299 94 186 207 b 439 601 186 488 299 601 b 693 347 578 601 693 488 b 439 94 693 207 578 94 z "},"á":{"ha":936,"x_min":0,"x_max":0,"o":"m 674 1042 l 549 1042 l 396 785 l 469 785 z m 872 90 b 800 181 833 90 800 116 l 800 694 l 693 694 l 693 604 b 439 708 628 668 538 708 b 78 347 240 708 78 547 b 439 -14 78 148 240 -14 b 703 106 543 -14 637 35 b 863 -14 726 35 781 -14 b 915 0 882 -14 901 -9 l 915 90 z m 439 94 b 186 347 299 94 186 207 b 439 601 186 488 299 601 b 693 347 578 601 693 488 b 439 94 693 207 578 94 z "},"ă":{"ha":936,"x_min":0,"x_max":0,"o":"m 438 786 b 667 998 569 786 667 870 l 599 998 b 438 856 599 920 531 856 b 278 998 345 856 278 920 l 210 998 b 438 786 210 870 307 786 z m 872 90 b 800 181 833 90 800 116 l 800 694 l 693 694 l 693 604 b 439 708 628 668 538 708 b 78 347 240 708 78 547 b 439 -14 78 148 240 -14 b 703 106 543 -14 637 35 b 863 -14 726 35 781 -14 b 915 0 882 -14 901 -9 l 915 90 z m 439 94 b 186 347 299 94 186 207 b 439 601 186 488 299 601 b 693 347 578 601 693 488 b 439 94 693 207 578 94 z "},"ǎ":{"ha":936,"x_min":0,"x_max":0,"o":"m 495 785 l 632 1042 l 547 1042 l 439 858 l 332 1042 l 248 1042 l 384 785 z m 872 90 b 800 181 833 90 800 116 l 800 694 l 693 694 l 693 604 b 439 708 628 668 538 708 b 78 347 240 708 78 547 b 439 -14 78 148 240 -14 b 703 106 543 -14 637 35 b 863 -14 726 35 781 -14 b 915 0 882 -14 901 -9 l 915 90 z m 439 94 b 186 347 299 94 186 207 b 439 601 186 488 299 601 b 693 347 578 601 693 488 b 439 94 693 207 578 94 z "},"â":{"ha":936,"x_min":0,"x_max":0,"o":"m 439 970 l 547 785 l 632 785 l 495 1042 l 384 1042 l 248 785 l 332 785 z m 872 90 b 800 181 833 90 800 116 l 800 694 l 693 694 l 693 604 b 439 708 628 668 538 708 b 78 347 240 708 78 547 b 439 -14 78 148 240 -14 b 703 106 543 -14 637 35 b 863 -14 726 35 781 -14 b 915 0 882 -14 901 -9 l 915 90 z m 439 94 b 186 347 299 94 186 207 b 439 601 186 488 299 601 b 693 347 578 601 693 488 b 439 94 693 207 578 94 z "},"ä":{"ha":936,"x_min":0,"x_max":0,"o":"m 314 825 b 389 898 354 825 389 858 b 314 972 389 941 354 972 b 238 898 273 972 238 941 b 314 825 238 858 273 825 z m 566 825 b 641 898 608 825 641 858 b 566 972 641 941 608 972 b 491 898 526 972 491 941 b 566 825 491 858 526 825 z m 872 90 b 800 181 833 90 800 116 l 800 694 l 693 694 l 693 604 b 439 708 628 668 538 708 b 78 347 240 708 78 547 b 439 -14 78 148 240 -14 b 703 106 543 -14 637 35 b 863 -14 726 35 781 -14 b 915 0 882 -14 901 -9 l 915 90 z m 439 94 b 186 347 299 94 186 207 b 439 601 186 488 299 601 b 693 347 578 601 693 488 b 439 94 693 207 578 94 z "},"à":{"ha":936,"x_min":0,"x_max":0,"o":"m 483 785 l 330 1042 l 205 1042 l 410 785 z m 872 90 b 800 181 833 90 800 116 l 800 694 l 693 694 l 693 604 b 439 708 628 668 538 708 b 78 347 240 708 78 547 b 439 -14 78 148 240 -14 b 703 106 543 -14 637 35 b 863 -14 726 35 781 -14 b 915 0 882 -14 901 -9 l 915 90 z m 439 94 b 186 347 299 94 186 207 b 439 601 186 488 299 601 b 693 347 578 601 693 488 b 439 94 693 207 578 94 z "},"ā":{"ha":936,"x_min":0,"x_max":0,"o":"m 625 911 l 252 911 l 252 839 l 625 839 z m 872 90 b 800 181 833 90 800 116 l 800 694 l 693 694 l 693 604 b 439 708 628 668 538 708 b 78 347 240 708 78 547 b 439 -14 78 148 240 -14 b 703 106 543 -14 637 35 b 863 -14 726 35 781 -14 b 915 0 882 -14 901 -9 l 915 90 z m 439 94 b 186 347 299 94 186 207 b 439 601 186 488 299 601 b 693 347 578 601 693 488 b 439 94 693 207 578 94 z "},"ą":{"ha":936,"x_min":0,"x_max":0,"o":"m 964 -236 b 833 -300 932 -278 885 -300 b 740 -207 773 -300 740 -260 b 911 -2 740 -113 821 -56 b 915 0 913 -2 913 0 l 915 90 l 872 90 b 800 181 833 90 800 116 l 800 694 l 693 694 l 693 604 b 439 708 628 668 538 708 b 78 347 240 708 78 547 b 439 -14 78 148 240 -14 b 703 106 543 -14 637 35 b 814 -7 720 50 759 7 b 663 -215 727 -66 663 -128 b 818 -359 663 -304 724 -356 b 1002 -290 887 -363 950 -340 z m 439 94 b 186 347 299 94 186 207 b 439 601 186 488 299 601 b 693 347 578 601 693 488 b 439 94 693 207 578 94 z "},"å":{"ha":936,"x_min":0,"x_max":0,"o":"m 439 760 b 582 905 517 760 582 826 b 439 1049 582 984 517 1049 b 293 905 359 1049 293 984 b 439 760 293 826 359 760 z m 439 991 b 523 905 484 991 523 951 b 439 819 523 856 484 819 b 354 905 391 819 354 856 b 439 991 354 951 391 991 z m 872 90 b 800 181 833 90 800 116 l 800 694 l 693 694 l 693 604 b 439 708 628 668 538 708 b 78 347 240 708 78 547 b 439 -14 78 148 240 -14 b 703 106 543 -14 637 35 b 863 -14 726 35 781 -14 b 915 0 882 -14 901 -9 l 915 90 z m 439 94 b 186 347 299 94 186 207 b 439 601 186 488 299 601 b 693 347 578 601 693 488 b 439 94 693 207 578 94 z "},"ã":{"ha":936,"x_min":0,"x_max":0,"o":"m 347 925 b 405 887 370 925 387 917 b 531 811 431 849 467 811 b 679 998 627 811 679 894 l 599 998 b 531 891 599 927 575 891 b 470 929 500 891 484 910 b 344 1005 441 970 405 1005 b 198 818 253 1005 198 924 l 278 818 b 347 925 278 878 302 925 z m 872 90 b 800 181 833 90 800 116 l 800 694 l 693 694 l 693 604 b 439 708 628 668 538 708 b 78 347 240 708 78 547 b 439 -14 78 148 240 -14 b 703 106 543 -14 637 35 b 863 -14 726 35 781 -14 b 915 0 882 -14 901 -9 l 915 90 z m 439 94 b 186 347 299 94 186 207 b 439 601 186 488 299 601 b 693 347 578 601 693 488 b 439 94 693 207 578 94 z "},"æ":{"ha":1351,"x_min":0,"x_max":0,"o":"m 1281 354 b 920 708 1276 554 1118 708 b 637 571 806 708 703 655 b 384 708 594 655 500 708 b 108 550 253 708 144 642 l 215 514 b 382 620 234 576 306 620 b 554 455 481 620 554 550 l 554 427 l 352 427 b 78 208 186 427 78 344 b 330 -14 78 76 182 -14 b 632 130 427 -14 540 42 b 920 -14 698 42 802 -14 b 1267 245 1085 -14 1222 95 l 1153 245 b 920 94 1115 155 1024 94 b 667 332 783 94 674 198 l 1280 332 z m 920 601 b 1158 429 1031 601 1125 530 l 681 429 b 920 601 715 530 809 601 z m 330 85 b 186 205 241 85 186 132 b 352 328 186 285 247 328 l 559 328 b 582 222 561 292 569 255 b 330 85 505 139 406 85 z "},"b":{"ha":927,"x_min":0,"x_max":0,"o":"m 488 708 b 234 604 389 708 300 668 l 234 1278 l 127 1278 l 127 0 l 234 0 l 234 90 b 488 -14 300 26 389 -14 b 849 347 688 -14 849 148 b 488 708 849 547 688 708 z m 488 94 b 234 347 347 94 234 207 b 488 601 234 488 347 601 b 741 347 628 601 741 488 b 488 94 741 207 628 94 z "},"c":{"ha":828,"x_min":0,"x_max":0,"o":"m 439 -14 b 783 236 601 -14 736 90 l 668 236 b 439 94 627 151 540 94 b 186 347 299 94 186 205 b 439 601 186 490 299 601 b 668 458 540 601 627 543 l 783 458 b 439 708 736 604 601 708 b 78 347 240 708 78 547 b 439 -14 78 148 240 -14 z "},"ć":{"ha":828,"x_min":0,"x_max":0,"o":"m 403 790 l 476 790 l 681 1047 l 556 1047 z m 439 -14 b 783 236 601 -14 736 90 l 668 236 b 439 94 627 151 540 94 b 186 347 299 94 186 205 b 439 601 186 490 299 601 b 668 458 540 601 627 543 l 783 458 b 439 708 736 604 601 708 b 78 347 240 708 78 547 b 439 -14 78 148 240 -14 z "},"č":{"ha":828,"x_min":0,"x_max":0,"o":"m 391 790 l 502 790 l 639 1047 l 554 1047 l 446 863 l 339 1047 l 255 1047 z m 439 -14 b 783 236 601 -14 736 90 l 668 236 b 439 94 627 151 540 94 b 186 347 299 94 186 205 b 439 601 186 490 299 601 b 668 458 540 601 627 543 l 783 458 b 439 708 736 604 601 708 b 78 347 240 708 78 547 b 439 -14 78 148 240 -14 z "},"ç":{"ha":828,"x_min":0,"x_max":0,"o":"m 439 94 b 186 347 299 94 186 205 b 439 601 186 490 299 601 b 668 458 540 601 627 543 l 783 458 b 439 708 736 604 601 708 b 78 347 240 708 78 547 b 408 -12 78 158 224 3 l 354 -122 l 406 -156 b 543 -217 483 -127 543 -155 b 465 -297 543 -262 509 -297 b 365 -247 431 -297 385 -274 l 306 -271 b 465 -361 332 -321 403 -361 b 608 -217 547 -361 608 -297 b 436 -92 608 -130 531 -73 l 476 -12 b 783 236 620 2 740 101 l 668 236 b 439 94 627 151 540 94 z "},"ċ":{"ha":828,"x_min":0,"x_max":0,"o":"m 446 804 b 521 878 486 804 521 837 b 446 953 521 920 486 953 b 372 878 406 953 372 920 b 446 804 372 837 406 804 z m 439 -14 b 783 236 601 -14 736 90 l 668 236 b 439 94 627 151 540 94 b 186 347 299 94 186 205 b 439 601 186 490 299 601 b 668 458 540 601 627 543 l 783 458 b 439 708 736 604 601 708 b 78 347 240 708 78 547 b 439 -14 78 148 240 -14 z "},"d":{"ha":927,"x_min":0,"x_max":0,"o":"m 693 1278 l 693 604 b 439 708 627 668 538 708 b 78 347 240 708 78 547 b 439 -14 78 148 240 -14 b 693 90 538 -14 627 26 l 693 0 l 800 0 l 800 1278 z m 439 94 b 186 347 299 94 186 207 b 439 601 186 488 299 601 b 693 347 578 601 693 488 b 439 94 693 207 578 94 z "},"ð":{"ha":891,"x_min":0,"x_max":0,"o":"m 569 948 l 632 1028 l 578 1069 l 514 990 b 271 1059 441 1035 359 1059 l 250 970 b 455 915 321 969 392 951 l 382 823 l 438 778 l 514 875 b 672 639 580 821 635 743 b 451 708 609 682 533 708 b 78 347 245 708 78 547 b 451 -14 78 148 245 -14 b 823 347 656 -14 823 148 b 569 948 823 602 724 823 z m 451 92 b 196 347 309 92 196 207 b 451 602 196 488 309 602 b 705 347 592 602 705 488 b 451 92 705 207 592 92 z "},"ď":{"ha":1108,"x_min":0,"x_max":0,"o":"m 693 604 b 439 708 627 668 538 708 b 78 347 240 708 78 547 b 439 -14 78 148 240 -14 b 693 90 538 -14 627 26 l 693 0 l 800 0 l 800 1278 l 693 1278 z m 997 1278 l 884 859 l 962 859 l 1120 1278 z m 439 94 b 186 347 299 94 186 207 b 439 601 186 488 299 601 b 693 347 578 601 693 488 b 439 94 693 207 578 94 z "},"đ":{"ha":927,"x_min":0,"x_max":0,"o":"m 894 1012 l 800 1012 l 800 1278 l 693 1278 l 693 1012 l 491 1012 l 491 908 l 693 908 l 693 604 b 439 708 627 668 538 708 b 78 347 240 708 78 547 b 439 -14 78 148 240 -14 b 693 90 538 -14 627 26 l 693 0 l 800 0 l 800 908 l 894 908 z m 439 94 b 186 347 299 94 186 207 b 439 601 186 488 299 601 b 693 347 578 601 693 488 b 439 94 693 207 578 94 z "},"e":{"ha":872,"x_min":0,"x_max":0,"o":"m 800 354 b 439 708 795 554 637 708 b 78 347 240 708 78 547 b 439 -14 78 148 240 -14 b 786 245 604 -14 741 95 l 672 245 b 439 94 634 155 543 94 b 186 332 302 94 193 198 l 799 332 z m 439 601 b 677 429 550 601 644 530 l 200 429 b 439 601 234 530 328 601 z "},"é":{"ha":872,"x_min":0,"x_max":0,"o":"m 681 1049 l 556 1049 l 403 792 l 476 792 z m 800 354 b 439 708 795 554 637 708 b 78 347 240 708 78 547 b 439 -14 78 148 240 -14 b 786 245 604 -14 741 95 l 672 245 b 439 94 634 155 543 94 b 186 332 302 94 193 198 l 799 332 z m 439 601 b 677 429 550 601 644 530 l 200 429 b 439 601 234 530 328 601 z "},"ě":{"ha":872,"x_min":0,"x_max":0,"o":"m 502 792 l 639 1049 l 554 1049 l 446 865 l 339 1049 l 255 1049 l 391 792 z m 800 354 b 439 708 795 554 637 708 b 78 347 240 708 78 547 b 439 -14 78 148 240 -14 b 786 245 604 -14 741 95 l 672 245 b 439 94 634 155 543 94 b 186 332 302 94 193 198 l 799 332 z m 439 601 b 677 429 550 601 644 530 l 200 429 b 439 601 234 530 328 601 z "},"ê":{"ha":872,"x_min":0,"x_max":0,"o":"m 446 977 l 554 792 l 639 792 l 502 1049 l 391 1049 l 255 792 l 339 792 z m 800 354 b 439 708 795 554 637 708 b 78 347 240 708 78 547 b 439 -14 78 148 240 -14 b 786 245 604 -14 741 95 l 672 245 b 439 94 634 155 543 94 b 186 332 302 94 193 198 l 799 332 z m 439 601 b 677 429 550 601 644 530 l 200 429 b 439 601 234 530 328 601 z "},"ë":{"ha":872,"x_min":0,"x_max":0,"o":"m 321 832 b 396 905 361 832 396 865 b 321 979 396 948 361 979 b 245 905 280 979 245 948 b 321 832 245 865 280 832 z m 573 832 b 648 905 615 832 648 865 b 573 979 648 948 615 979 b 498 905 533 979 498 948 b 573 832 498 865 533 832 z m 800 354 b 439 708 795 554 637 708 b 78 347 240 708 78 547 b 439 -14 78 148 240 -14 b 786 245 604 -14 741 95 l 672 245 b 439 94 634 155 543 94 b 186 332 302 94 193 198 l 799 332 z m 439 601 b 677 429 550 601 644 530 l 200 429 b 439 601 234 530 328 601 z "},"ė":{"ha":872,"x_min":0,"x_max":0,"o":"m 446 806 b 521 880 486 806 521 839 b 446 955 521 922 486 955 b 372 880 406 955 372 922 b 446 806 372 839 406 806 z m 800 354 b 439 708 795 554 637 708 b 78 347 240 708 78 547 b 439 -14 78 148 240 -14 b 786 245 604 -14 741 95 l 672 245 b 439 94 634 155 543 94 b 186 332 302 94 193 198 l 799 332 z m 439 601 b 677 429 550 601 644 530 l 200 429 b 439 601 234 530 328 601 z "},"è":{"ha":872,"x_min":0,"x_max":0,"o":"m 490 792 l 337 1049 l 212 1049 l 417 792 z m 800 354 b 439 708 795 554 637 708 b 78 347 240 708 78 547 b 439 -14 78 148 240 -14 b 786 245 604 -14 741 95 l 672 245 b 439 94 634 155 543 94 b 186 332 302 94 193 198 l 799 332 z m 439 601 b 677 429 550 601 644 530 l 200 429 b 439 601 234 530 328 601 z "},"ē":{"ha":872,"x_min":0,"x_max":0,"o":"m 632 918 l 259 918 l 259 845 l 632 845 z m 800 354 b 439 708 795 554 637 708 b 78 347 240 708 78 547 b 439 -14 78 148 240 -14 b 786 245 604 -14 741 95 l 672 245 b 439 94 634 155 543 94 b 186 332 302 94 193 198 l 799 332 z m 439 601 b 677 429 550 601 644 530 l 200 429 b 439 601 234 530 328 601 z "},"ę":{"ha":872,"x_min":0,"x_max":0,"o":"m 800 354 b 439 708 795 554 637 708 b 78 347 240 708 78 547 b 439 -14 78 148 240 -14 l 455 -14 b 359 -181 398 -61 359 -113 b 514 -325 359 -269 420 -321 b 698 -255 583 -328 646 -306 l 660 -201 b 530 -266 628 -243 582 -266 b 436 -172 469 -266 436 -226 b 573 12 436 -90 497 -36 b 786 245 675 52 753 139 l 672 245 b 439 94 634 155 543 94 b 186 332 302 94 193 198 l 799 332 z m 439 601 b 677 429 550 601 644 530 l 200 429 b 439 601 234 530 328 601 z "},"f":{"ha":479,"x_min":0,"x_max":0,"o":"m 460 694 l 274 694 l 274 1068 b 378 1174 274 1132 323 1174 l 458 1172 l 458 1255 b 366 1278 439 1267 401 1278 b 167 1082 259 1278 167 1191 l 167 694 l 50 694 l 50 590 l 167 590 l 167 0 l 274 0 l 274 590 l 460 590 z "},"g":{"ha":927,"x_min":0,"x_max":0,"o":"m 691 694 l 691 608 b 439 708 627 670 536 708 b 78 347 240 708 78 549 b 439 -14 78 148 240 -14 b 693 90 538 -14 627 26 l 693 -61 b 439 -314 693 -200 578 -314 b 198 -139 326 -314 231 -240 l 99 -182 b 439 -422 149 -323 283 -422 b 800 -61 639 -422 800 -260 l 800 694 z m 439 94 b 186 347 299 94 186 208 b 439 601 186 488 299 601 b 693 347 578 601 693 488 b 439 94 693 208 578 94 z "},"ğ":{"ha":927,"x_min":0,"x_max":0,"o":"m 438 786 b 667 998 569 786 667 870 l 599 998 b 438 856 599 920 531 856 b 278 998 345 856 278 920 l 210 998 b 438 786 210 870 307 786 z m 691 694 l 691 608 b 439 708 627 670 536 708 b 78 347 240 708 78 549 b 439 -14 78 148 240 -14 b 693 90 538 -14 627 26 l 693 -61 b 439 -314 693 -200 578 -314 b 198 -139 326 -314 231 -240 l 99 -182 b 439 -422 149 -323 283 -422 b 800 -61 639 -422 800 -260 l 800 694 z m 439 94 b 186 347 299 94 186 208 b 439 601 186 488 299 601 b 693 347 578 601 693 488 b 439 94 693 208 578 94 z "},"ģ":{"ha":927,"x_min":0,"x_max":0,"o":"m 606 1035 l 530 1035 l 366 790 l 502 790 z m 691 694 l 691 608 b 439 708 627 670 536 708 b 78 347 240 708 78 549 b 439 -14 78 148 240 -14 b 693 90 538 -14 627 26 l 693 -61 b 439 -314 693 -200 578 -314 b 198 -139 326 -314 231 -240 l 99 -182 b 439 -422 149 -323 283 -422 b 800 -61 639 -422 800 -260 l 800 694 z m 439 94 b 186 347 299 94 186 208 b 439 601 186 488 299 601 b 693 347 578 601 693 488 b 439 94 693 208 578 94 z "},"ġ":{"ha":927,"x_min":0,"x_max":0,"o":"m 439 799 b 514 873 479 799 514 832 b 439 948 514 915 479 948 b 365 873 399 948 365 915 b 439 799 365 832 399 799 z m 691 694 l 691 608 b 439 708 627 670 536 708 b 78 347 240 708 78 549 b 439 -14 78 148 240 -14 b 693 90 538 -14 627 26 l 693 -61 b 439 -314 693 -200 578 -314 b 198 -139 326 -314 231 -240 l 99 -182 b 439 -422 149 -323 283 -422 b 800 -61 639 -422 800 -260 l 800 694 z m 439 94 b 186 347 299 94 186 208 b 439 601 186 488 299 601 b 693 347 578 601 693 488 b 439 94 693 208 578 94 z "},"h":{"ha":769,"x_min":0,"x_max":0,"o":"m 389 708 b 234 658 332 708 278 689 l 234 1278 l 127 1278 l 127 0 l 234 0 l 234 444 b 389 601 234 533 304 601 b 545 444 474 601 545 533 l 545 0 l 651 0 l 651 444 b 389 708 651 592 535 708 z "},"ħ":{"ha":769,"x_min":0,"x_max":0,"o":"m 389 708 b 234 658 332 708 278 689 l 234 918 l 434 918 l 434 1023 l 234 1023 l 234 1278 l 127 1278 l 127 1023 l 31 1023 l 31 918 l 127 918 l 127 0 l 234 0 l 234 444 b 389 601 234 533 304 601 b 545 444 474 601 545 533 l 545 0 l 651 0 l 651 444 b 389 708 651 592 535 708 z "},"i":{"ha":387,"x_min":0,"x_max":0,"o":"m 194 825 b 269 898 234 825 269 858 b 194 972 269 941 234 972 b 118 898 153 972 118 941 b 194 825 118 858 153 825 z m 141 0 l 248 0 l 248 694 l 141 694 z "},"ı":{"ha":380,"x_min":0,"x_max":0,"o":"m 137 0 l 245 0 l 245 694 l 137 694 z "},"í":{"ha":380,"x_min":0,"x_max":0,"o":"m 148 785 l 220 785 l 425 1042 l 300 1042 z m 137 0 l 245 0 l 245 694 l 137 694 z "},"ǐ":{"ha":380,"x_min":0,"x_max":0,"o":"m 135 785 l 247 785 l 384 1042 l 299 1042 l 191 858 l 83 1042 l 0 1042 z m 137 0 l 245 0 l 245 694 l 137 694 z "},"î":{"ha":380,"x_min":0,"x_max":0,"o":"m 83 785 l 191 970 l 299 785 l 384 785 l 247 1042 l 135 1042 l 0 785 z m 137 0 l 245 0 l 245 694 l 137 694 z "},"ï":{"ha":380,"x_min":0,"x_max":0,"o":"m 66 825 b 141 898 106 825 141 858 b 66 972 141 941 106 972 b -10 898 24 972 -10 941 b 66 825 -10 858 24 825 z m 318 825 b 392 898 359 825 392 858 b 318 972 392 941 359 972 b 243 898 278 972 243 941 b 318 825 243 858 278 825 z m 137 0 l 245 0 l 245 694 l 137 694 z "},"ì":{"ha":380,"x_min":0,"x_max":0,"o":"m 234 785 l 82 1042 l -43 1042 l 161 785 z m 137 0 l 245 0 l 245 694 l 137 694 z "},"ī":{"ha":380,"x_min":0,"x_max":0,"o":"m 3 839 l 377 839 l 377 911 l 3 911 z m 137 0 l 245 0 l 245 694 l 137 694 z "},"į":{"ha":380,"x_min":0,"x_max":0,"o":"m 191 799 b 266 873 231 799 266 832 b 191 948 266 915 231 948 b 116 873 151 948 116 915 b 191 799 116 832 151 799 z m 283 -236 b 153 -300 252 -278 205 -300 b 59 -207 92 -300 59 -260 b 234 0 59 -111 142 -54 l 245 0 l 245 694 l 137 694 l 137 0 l 146 0 b -17 -215 52 -61 -17 -125 b 137 -359 -17 -304 43 -356 b 321 -290 207 -363 269 -340 z "},"j":{"ha":389,"x_min":0,"x_max":0,"o":"m 194 825 b 269 898 234 825 269 858 b 194 972 269 941 234 972 b 120 898 155 972 120 941 b 194 825 120 858 155 825 z m 50 -417 b 248 -220 158 -417 248 -330 l 248 694 l 141 694 l 141 -207 b 36 -312 141 -271 92 -312 l -42 -311 l -42 -394 b 50 -417 -24 -406 14 -417 z "},"ȷ":{"ha":363,"x_min":0,"x_max":0,"o":"m 36 -417 b 236 -220 146 -417 236 -330 l 236 694 l 128 694 l 128 -207 b 24 -312 128 -271 80 -312 l -54 -311 l -54 -394 b 36 -417 -36 -406 2 -417 z "},"k":{"ha":717,"x_min":0,"x_max":0,"o":"m 734 0 l 382 385 l 705 694 l 561 694 l 245 391 l 245 1278 l 137 1278 l 137 0 l 245 0 l 245 387 l 587 0 z "},"ķ":{"ha":717,"x_min":0,"x_max":0,"o":"m 382 385 l 705 694 l 561 694 l 245 391 l 245 1278 l 137 1278 l 137 0 l 245 0 l 245 387 l 587 0 l 734 0 z m 205 -328 l 281 -328 l 444 -83 l 309 -83 z "},"l":{"ha":361,"x_min":0,"x_max":0,"o":"m 127 0 l 234 0 l 234 1278 l 127 1278 z "},"ĺ":{"ha":361,"x_min":0,"x_max":0,"o":"m 137 1368 l 210 1368 l 415 1625 l 290 1625 z m 127 0 l 234 0 l 234 1278 l 127 1278 z "},"ľ":{"ha":533,"x_min":0,"x_max":0,"o":"m 127 0 l 234 0 l 234 1278 l 127 1278 z m 385 859 l 543 1278 l 420 1278 l 307 859 z "},"ļ":{"ha":361,"x_min":0,"x_max":0,"o":"m 127 0 l 234 0 l 234 1278 l 127 1278 z m 85 -328 l 248 -83 l 113 -83 l 9 -328 z "},"ŀ":{"ha":361,"x_min":0,"x_max":0,"o":"m 127 0 l 234 0 l 234 1278 l 127 1278 z m 359 439 b 422 500 392 439 422 465 b 359 561 422 533 392 561 b 299 500 326 561 299 533 b 359 439 299 465 326 439 z "},"ł":{"ha":361,"x_min":0,"x_max":0,"o":"m 396 809 l 335 859 l 234 752 l 234 1278 l 127 1278 l 127 637 l -35 465 l 24 415 l 127 524 l 127 0 l 234 0 l 234 637 z "},"m":{"ha":1167,"x_min":0,"x_max":0,"o":"m 792 708 b 589 604 708 708 635 668 b 396 708 542 668 469 708 b 234 630 333 708 276 677 l 234 694 l 127 694 l 127 0 l 234 0 l 234 444 b 385 601 234 531 300 601 b 535 444 467 601 535 531 l 535 0 l 642 0 l 642 444 b 792 601 642 531 710 601 b 943 444 875 601 943 531 l 943 0 l 1050 0 l 1050 444 b 792 708 1050 590 936 708 z "},"n":{"ha":778,"x_min":0,"x_max":0,"o":"m 403 708 b 234 639 339 708 280 682 l 234 694 l 127 694 l 127 0 l 234 0 l 234 443 b 394 601 234 531 306 601 b 552 443 483 601 552 531 l 552 0 l 660 0 l 660 443 b 403 708 660 590 536 708 z "},"ń":{"ha":778,"x_min":0,"x_max":0,"o":"m 628 1042 l 503 1042 l 351 785 l 424 785 z m 403 708 b 234 639 339 708 280 682 l 234 694 l 127 694 l 127 0 l 234 0 l 234 443 b 394 601 234 531 306 601 b 552 443 483 601 552 531 l 552 0 l 660 0 l 660 443 b 403 708 660 590 536 708 z "},"ň":{"ha":778,"x_min":0,"x_max":0,"o":"m 450 785 l 587 1042 l 502 1042 l 394 858 l 286 1042 l 203 1042 l 339 785 z m 403 708 b 234 639 339 708 280 682 l 234 694 l 127 694 l 127 0 l 234 0 l 234 443 b 394 601 234 531 306 601 b 552 443 483 601 552 531 l 552 0 l 660 0 l 660 443 b 403 708 660 590 536 708 z "},"ņ":{"ha":778,"x_min":0,"x_max":0,"o":"m 403 708 b 234 639 339 708 280 682 l 234 694 l 127 694 l 127 0 l 234 0 l 234 443 b 394 601 234 531 306 601 b 552 443 483 601 552 531 l 552 0 l 660 0 l 660 443 b 403 708 660 590 536 708 z m 224 -328 l 300 -328 l 464 -83 l 328 -83 z "},"ŋ":{"ha":778,"x_min":0,"x_max":0,"o":"m 403 708 b 234 639 339 708 280 682 l 234 694 l 127 694 l 127 0 l 234 0 l 234 443 b 394 601 234 531 306 601 b 552 443 483 601 552 531 l 552 2 l 552 -198 b 464 -300 552 -286 512 -302 l 464 -373 b 660 -181 597 -375 660 -325 l 660 0 l 660 443 b 403 708 660 590 536 708 z "},"ñ":{"ha":778,"x_min":0,"x_max":0,"o":"m 302 925 b 359 887 325 925 342 917 b 486 811 385 849 422 811 b 634 998 582 811 634 894 l 554 998 b 486 891 554 927 530 891 b 425 929 455 891 439 910 b 299 1005 396 970 359 1005 b 153 818 208 1005 153 924 l 233 818 b 302 925 233 878 257 925 z m 403 708 b 234 639 339 708 280 682 l 234 694 l 127 694 l 127 0 l 234 0 l 234 443 b 394 601 234 531 306 601 b 552 443 483 601 552 531 l 552 0 l 660 0 l 660 443 b 403 708 660 590 536 708 z "},"o":{"ha":878,"x_min":0,"x_max":0,"o":"m 439 -14 b 800 347 639 -14 800 148 b 439 708 800 547 639 708 b 78 347 240 708 78 547 b 439 -14 78 148 240 -14 z m 439 94 b 186 347 299 94 186 207 b 439 601 186 488 299 601 b 693 347 578 601 693 488 b 439 94 693 207 578 94 z "},"ó":{"ha":878,"x_min":0,"x_max":0,"o":"m 396 785 l 469 785 l 674 1042 l 549 1042 z m 439 -14 b 800 347 639 -14 800 148 b 439 708 800 547 639 708 b 78 347 240 708 78 547 b 439 -14 78 148 240 -14 z m 439 94 b 186 347 299 94 186 207 b 439 601 186 488 299 601 b 693 347 578 601 693 488 b 439 94 693 207 578 94 z "},"ǒ":{"ha":878,"x_min":0,"x_max":0,"o":"m 384 785 l 495 785 l 632 1042 l 547 1042 l 439 858 l 332 1042 l 248 1042 z m 439 -14 b 800 347 639 -14 800 148 b 439 708 800 547 639 708 b 78 347 240 708 78 547 b 439 -14 78 148 240 -14 z m 439 94 b 186 347 299 94 186 207 b 439 601 186 488 299 601 b 693 347 578 601 693 488 b 439 94 693 207 578 94 z "},"ô":{"ha":878,"x_min":0,"x_max":0,"o":"m 332 785 l 439 970 l 547 785 l 632 785 l 495 1042 l 384 1042 l 248 785 z m 439 -14 b 800 347 639 -14 800 148 b 439 708 800 547 639 708 b 78 347 240 708 78 547 b 439 -14 78 148 240 -14 z m 439 94 b 186 347 299 94 186 207 b 439 601 186 488 299 601 b 693 347 578 601 693 488 b 439 94 693 207 578 94 z "},"ö":{"ha":878,"x_min":0,"x_max":0,"o":"m 314 825 b 389 898 354 825 389 858 b 314 972 389 941 354 972 b 238 898 273 972 238 941 b 314 825 238 858 273 825 z m 566 825 b 641 898 608 825 641 858 b 566 972 641 941 608 972 b 491 898 526 972 491 941 b 566 825 491 858 526 825 z m 439 -14 b 800 347 639 -14 800 148 b 439 708 800 547 639 708 b 78 347 240 708 78 547 b 439 -14 78 148 240 -14 z m 439 94 b 186 347 299 94 186 207 b 439 601 186 488 299 601 b 693 347 578 601 693 488 b 439 94 693 207 578 94 z "},"ò":{"ha":878,"x_min":0,"x_max":0,"o":"m 483 785 l 330 1042 l 205 1042 l 410 785 z m 439 -14 b 800 347 639 -14 800 148 b 439 708 800 547 639 708 b 78 347 240 708 78 547 b 439 -14 78 148 240 -14 z m 439 94 b 186 347 299 94 186 207 b 439 601 186 488 299 601 b 693 347 578 601 693 488 b 439 94 693 207 578 94 z "},"ő":{"ha":878,"x_min":0,"x_max":0,"o":"m 280 785 l 352 785 l 556 1042 l 431 1042 z m 505 785 l 578 785 l 781 1042 l 656 1042 z m 439 -14 b 800 347 639 -14 800 148 b 439 708 800 547 639 708 b 78 347 240 708 78 547 b 439 -14 78 148 240 -14 z m 439 94 b 186 347 299 94 186 207 b 439 601 186 488 299 601 b 693 347 578 601 693 488 b 439 94 693 207 578 94 z "},"ō":{"ha":878,"x_min":0,"x_max":0,"o":"m 252 839 l 625 839 l 625 911 l 252 911 z m 439 -14 b 800 347 639 -14 800 148 b 439 708 800 547 639 708 b 78 347 240 708 78 547 b 439 -14 78 148 240 -14 z m 439 94 b 186 347 299 94 186 207 b 439 601 186 488 299 601 b 693 347 578 601 693 488 b 439 94 693 207 578 94 z "},"ø":{"ha":878,"x_min":0,"x_max":0,"o":"m 674 623 l 736 714 l 681 748 l 620 660 b 439 708 566 691 505 708 b 78 347 240 708 78 547 b 208 69 78 236 128 137 l 144 -21 l 200 -56 l 262 33 b 439 -14 314 3 375 -14 b 800 347 639 -14 800 148 b 674 623 800 458 750 557 z m 186 347 b 439 601 186 488 299 601 b 557 571 481 601 523 590 l 269 158 b 186 347 219 205 186 273 z m 439 94 b 323 122 398 94 358 104 l 611 533 b 693 347 661 488 693 422 b 439 94 693 207 578 94 z "},"õ":{"ha":878,"x_min":0,"x_max":0,"o":"m 531 811 b 679 998 627 811 679 894 l 599 998 b 531 891 599 927 575 891 b 470 929 500 891 484 910 b 344 1005 441 970 405 1005 b 198 818 253 1005 198 924 l 278 818 b 347 925 278 878 302 925 b 405 887 370 925 387 917 b 531 811 431 849 467 811 z m 439 -14 b 800 347 639 -14 800 148 b 439 708 800 547 639 708 b 78 347 240 708 78 547 b 439 -14 78 148 240 -14 z m 439 94 b 186 347 299 94 186 207 b 439 601 186 488 299 601 b 693 347 578 601 693 488 b 439 94 693 207 578 94 z "},"œ":{"ha":1490,"x_min":0,"x_max":0,"o":"m 1418 354 b 1057 708 1413 554 1255 708 b 748 535 925 708 811 639 b 439 708 686 639 571 708 b 78 347 240 708 78 547 b 439 -14 78 148 240 -14 b 748 160 571 -14 686 56 b 1057 -14 811 56 925 -14 b 1405 245 1222 -14 1359 95 l 1290 245 b 1057 94 1252 155 1161 94 b 804 332 920 94 811 198 l 1417 332 z m 439 94 b 186 347 299 94 186 207 b 439 601 186 488 299 601 b 693 347 578 601 693 488 b 439 94 693 207 578 94 z m 1057 601 b 1295 429 1168 601 1262 530 l 818 429 b 1057 601 852 530 946 601 z "},"p":{"ha":927,"x_min":0,"x_max":0,"o":"m 488 708 b 234 604 389 708 300 668 l 234 694 l 127 694 l 127 -417 l 234 -417 l 234 90 b 488 -14 300 26 389 -14 b 849 347 688 -14 849 148 b 488 708 849 547 688 708 z m 488 94 b 234 347 347 94 234 207 b 488 601 234 488 347 601 b 741 347 628 601 741 488 b 488 94 741 207 628 94 z "},"þ":{"ha":938,"x_min":0,"x_max":0,"o":"m 498 708 b 245 604 399 708 311 668 l 245 1153 l 137 1153 l 137 -417 l 245 -417 l 245 90 b 498 -14 311 26 399 -14 b 859 347 698 -14 859 148 b 498 708 859 547 698 708 z m 498 94 b 245 347 358 94 245 207 b 498 601 245 488 358 601 b 752 347 637 601 752 488 b 498 94 752 207 637 94 z "},"q":{"ha":927,"x_min":0,"x_max":0,"o":"m 905 -312 b 800 -207 849 -312 800 -271 l 800 694 l 693 694 l 693 604 b 439 708 627 668 538 708 b 78 347 240 708 78 547 b 439 -14 78 148 240 -14 b 693 90 538 -14 627 26 l 693 -220 b 892 -417 693 -330 785 -417 b 969 -403 920 -417 948 -411 l 969 -312 z m 439 94 b 186 347 299 94 186 207 b 439 601 186 488 299 601 b 693 347 578 601 693 488 b 439 94 693 207 578 94 z "},"r":{"ha":528,"x_min":0,"x_max":0,"o":"m 465 708 b 234 595 366 708 286 665 l 234 694 l 127 694 l 127 0 l 234 0 l 234 377 b 465 601 234 503 339 601 b 519 594 486 601 503 599 l 519 703 b 465 708 503 707 486 708 z "},"ŕ":{"ha":528,"x_min":0,"x_max":0,"o":"m 543 1042 l 418 1042 l 266 785 l 339 785 z m 234 595 l 234 694 l 127 694 l 127 0 l 234 0 l 234 377 b 465 601 234 503 339 601 b 519 594 486 601 503 599 l 519 703 b 465 708 503 707 486 708 b 234 595 366 708 286 665 z "},"ř":{"ha":528,"x_min":0,"x_max":0,"o":"m 365 785 l 502 1042 l 417 1042 l 309 858 l 201 1042 l 118 1042 l 253 785 z m 465 708 b 234 595 366 708 286 665 l 234 694 l 127 694 l 127 0 l 234 0 l 234 377 b 465 601 234 503 339 601 b 519 594 486 601 503 599 l 519 703 b 465 708 503 707 486 708 z "},"ŗ":{"ha":528,"x_min":0,"x_max":0,"o":"m 465 708 b 234 595 366 708 286 665 l 234 694 l 127 694 l 127 0 l 234 0 l 234 377 b 465 601 234 503 339 601 b 519 594 486 601 503 599 l 519 703 b 465 708 503 707 486 708 z m 9 -328 l 85 -328 l 248 -83 l 113 -83 z "},"s":{"ha":575,"x_min":0,"x_max":0,"o":"m 299 -14 b 521 188 420 -14 521 68 b 326 398 521 313 417 361 b 198 514 241 434 198 453 b 295 601 198 573 238 601 b 399 545 340 601 380 582 l 493 594 b 290 708 467 656 378 708 b 89 510 188 708 89 637 b 285 299 89 401 161 345 b 413 188 368 266 413 243 b 299 92 413 127 361 92 b 161 179 234 92 172 128 l 57 137 b 299 -14 83 54 188 -14 z "},"ś":{"ha":575,"x_min":0,"x_max":0,"o":"m 259 785 l 332 785 l 536 1042 l 411 1042 z m 299 -14 b 521 188 420 -14 521 68 b 326 398 521 313 417 361 b 198 514 241 434 198 453 b 295 601 198 573 238 601 b 399 545 340 601 380 582 l 493 594 b 290 708 467 656 378 708 b 89 510 188 708 89 637 b 285 299 89 401 161 345 b 413 188 368 266 413 243 b 299 92 413 127 361 92 b 161 179 234 92 172 128 l 57 137 b 299 -14 83 54 188 -14 z "},"š":{"ha":575,"x_min":0,"x_max":0,"o":"m 247 785 l 358 785 l 495 1042 l 410 1042 l 302 858 l 194 1042 l 111 1042 z m 299 -14 b 521 188 420 -14 521 68 b 326 398 521 313 417 361 b 198 514 241 434 198 453 b 295 601 198 573 238 601 b 399 545 340 601 380 582 l 493 594 b 290 708 467 656 378 708 b 89 510 188 708 89 637 b 285 299 89 401 161 345 b 413 188 368 266 413 243 b 299 92 413 127 361 92 b 161 179 234 92 172 128 l 57 137 b 299 -14 83 54 188 -14 z "},"ş":{"ha":575,"x_min":0,"x_max":0,"o":"m 521 188 b 326 398 521 313 417 361 b 198 514 241 434 198 453 b 295 601 198 573 238 601 b 399 545 340 601 380 582 l 493 594 b 290 708 467 656 378 708 b 89 510 188 708 89 637 b 285 299 89 401 161 345 b 413 188 368 266 413 243 b 299 92 413 127 361 92 b 161 179 234 92 172 128 l 57 137 b 260 -10 80 64 165 2 l 205 -122 l 257 -156 b 394 -217 333 -127 394 -155 b 316 -297 394 -262 359 -297 b 215 -247 281 -297 236 -274 l 156 -271 b 316 -361 182 -321 253 -361 b 458 -217 398 -361 458 -297 b 286 -92 458 -130 382 -73 l 325 -12 b 521 188 434 -2 521 76 z "},"ș":{"ha":575,"x_min":0,"x_max":0,"o":"m 299 -14 b 521 188 420 -14 521 68 b 326 398 521 313 417 361 b 198 514 241 434 198 453 b 295 601 198 573 238 601 b 399 545 340 601 380 582 l 493 594 b 290 708 467 656 378 708 b 89 510 188 708 89 637 b 285 299 89 401 161 345 b 413 188 368 266 413 243 b 299 92 413 127 361 92 b 161 179 234 92 172 128 l 57 137 b 299 -14 83 54 188 -14 z m 203 -328 l 366 -83 l 231 -83 l 127 -328 z "},"ß":{"ha":943,"x_min":0,"x_max":0,"o":"m 663 531 b 774 759 731 583 774 665 b 464 1042 774 922 644 1042 b 137 747 278 1042 137 917 l 137 0 l 245 0 l 245 747 b 464 946 245 861 339 946 b 672 757 587 946 672 866 b 479 561 672 648 587 561 l 444 561 l 444 470 l 526 470 b 726 274 637 470 726 384 b 545 111 726 168 641 111 l 361 111 l 361 0 l 563 0 b 835 269 712 0 835 111 b 663 531 835 387 766 484 z "},"t":{"ha":503,"x_min":0,"x_max":0,"o":"m 446 590 l 446 694 l 260 694 l 260 997 l 153 997 l 153 694 l 36 694 l 36 590 l 153 590 l 153 182 b 352 -14 153 73 245 -14 b 444 9 387 -14 425 -3 l 444 90 l 365 90 b 260 196 309 90 260 132 l 260 590 z "},"ŧ":{"ha":503,"x_min":0,"x_max":0,"o":"m 446 590 l 446 694 l 260 694 l 260 997 l 153 997 l 153 694 l 36 694 l 36 590 l 153 590 l 153 401 l 35 401 l 35 297 l 153 297 l 153 182 b 352 -14 153 73 245 -14 b 444 9 387 -14 425 -3 l 444 90 l 365 90 b 260 196 309 90 260 132 l 260 297 l 438 297 l 438 401 l 260 401 l 260 590 z "},"ť":{"ha":630,"x_min":0,"x_max":0,"o":"m 516 1167 l 403 748 l 481 748 l 639 1167 z m 260 997 l 153 997 l 153 694 l 36 694 l 36 590 l 153 590 l 153 182 b 352 -14 153 73 245 -14 b 444 9 387 -14 425 -3 l 444 90 l 365 90 b 260 196 309 90 260 132 l 260 590 l 446 590 l 446 694 l 260 694 z "},"ţ":{"ha":503,"x_min":0,"x_max":0,"o":"m 340 -92 l 380 -12 b 444 9 406 -9 431 0 l 444 90 l 365 90 b 260 196 309 90 260 132 l 260 590 l 446 590 l 446 694 l 260 694 l 260 997 l 153 997 l 153 694 l 36 694 l 36 590 l 153 590 l 153 182 b 314 -10 153 87 224 7 l 259 -122 l 311 -156 b 448 -217 387 -127 448 -155 b 370 -297 448 -262 413 -297 b 269 -247 335 -297 290 -274 l 210 -271 b 370 -361 236 -321 307 -361 b 512 -217 451 -361 512 -297 b 340 -92 512 -130 436 -73 z "},"ț":{"ha":503,"x_min":0,"x_max":0,"o":"m 446 590 l 446 694 l 260 694 l 260 997 l 153 997 l 153 694 l 36 694 l 36 590 l 153 590 l 153 182 b 352 -14 153 73 245 -14 b 444 9 387 -14 425 -3 l 444 90 l 365 90 b 260 196 309 90 260 132 l 260 590 z m 181 -328 l 257 -328 l 420 -83 l 285 -83 z "},"u":{"ha":727,"x_min":0,"x_max":0,"o":"m 365 -14 b 625 250 519 -14 625 89 l 625 694 l 519 694 l 519 262 b 365 94 519 158 455 94 b 210 262 276 94 210 158 l 210 694 l 104 694 l 104 250 b 365 -14 104 89 208 -14 z "},"ú":{"ha":727,"x_min":0,"x_max":0,"o":"m 325 785 l 398 785 l 602 1042 l 477 1042 z m 365 -14 b 625 250 519 -14 625 89 l 625 694 l 519 694 l 519 262 b 365 94 519 158 455 94 b 210 262 276 94 210 158 l 210 694 l 104 694 l 104 250 b 365 -14 104 89 208 -14 z "},"ǔ":{"ha":727,"x_min":0,"x_max":0,"o":"m 313 785 l 424 785 l 561 1042 l 476 1042 l 368 858 l 260 1042 l 177 1042 z m 365 -14 b 625 250 519 -14 625 89 l 625 694 l 519 694 l 519 262 b 365 94 519 158 455 94 b 210 262 276 94 210 158 l 210 694 l 104 694 l 104 250 b 365 -14 104 89 208 -14 z "},"û":{"ha":727,"x_min":0,"x_max":0,"o":"m 260 785 l 368 970 l 476 785 l 561 785 l 424 1042 l 313 1042 l 177 785 z m 365 -14 b 625 250 519 -14 625 89 l 625 694 l 519 694 l 519 262 b 365 94 519 158 455 94 b 210 262 276 94 210 158 l 210 694 l 104 694 l 104 250 b 365 -14 104 89 208 -14 z "},"ü":{"ha":727,"x_min":0,"x_max":0,"o":"m 243 825 b 318 898 283 825 318 858 b 243 972 318 941 283 972 b 167 898 201 972 167 941 b 243 825 167 858 201 825 z m 495 825 b 569 898 536 825 569 858 b 495 972 569 941 536 972 b 420 898 455 972 420 941 b 495 825 420 858 455 825 z m 365 -14 b 625 250 519 -14 625 89 l 625 694 l 519 694 l 519 262 b 365 94 519 158 455 94 b 210 262 276 94 210 158 l 210 694 l 104 694 l 104 250 b 365 -14 104 89 208 -14 z "},"ù":{"ha":727,"x_min":0,"x_max":0,"o":"m 411 785 l 259 1042 l 134 1042 l 339 785 z m 365 -14 b 625 250 519 -14 625 89 l 625 694 l 519 694 l 519 262 b 365 94 519 158 455 94 b 210 262 276 94 210 158 l 210 694 l 104 694 l 104 250 b 365 -14 104 89 208 -14 z "},"ű":{"ha":727,"x_min":0,"x_max":0,"o":"m 208 785 l 281 785 l 484 1042 l 359 1042 z m 434 785 l 507 785 l 710 1042 l 585 1042 z m 365 -14 b 625 250 519 -14 625 89 l 625 694 l 519 694 l 519 262 b 365 94 519 158 455 94 b 210 262 276 94 210 158 l 210 694 l 104 694 l 104 250 b 365 -14 104 89 208 -14 z "},"ū":{"ha":727,"x_min":0,"x_max":0,"o":"m 181 839 l 554 839 l 554 911 l 181 911 z m 365 -14 b 625 250 519 -14 625 89 l 625 694 l 519 694 l 519 262 b 365 94 519 158 455 94 b 210 262 276 94 210 158 l 210 694 l 104 694 l 104 250 b 365 -14 104 89 208 -14 z "},"ų":{"ha":727,"x_min":0,"x_max":0,"o":"m 476 7 b 625 250 568 43 625 130 l 625 694 l 519 694 l 519 262 b 365 94 519 158 455 94 b 210 262 276 94 210 158 l 210 694 l 104 694 l 104 250 b 365 -14 104 89 208 -14 l 368 -14 b 283 -172 316 -59 283 -109 b 438 -316 283 -260 344 -312 b 622 -247 507 -319 569 -297 l 583 -193 b 453 -257 552 -234 505 -257 b 359 -163 392 -257 359 -217 b 476 7 359 -89 410 -38 z "},"ů":{"ha":727,"x_min":0,"x_max":0,"o":"m 368 760 b 510 905 446 760 510 826 b 368 1049 510 984 446 1049 b 222 905 288 1049 222 984 b 368 760 222 826 288 760 z m 368 819 b 283 905 319 819 283 856 b 368 991 283 951 319 991 b 451 905 413 991 451 951 b 368 819 451 856 413 819 z m 365 -14 b 625 250 519 -14 625 89 l 625 694 l 519 694 l 519 262 b 365 94 519 158 455 94 b 210 262 276 94 210 158 l 210 694 l 104 694 l 104 250 b 365 -14 104 89 208 -14 z "},"v":{"ha":693,"x_min":0,"x_max":0,"o":"m 561 694 l 347 125 l 132 694 l 16 694 l 293 0 l 398 0 l 677 694 z "},"w":{"ha":1115,"x_min":0,"x_max":0,"o":"m 983 694 l 799 125 l 609 694 l 507 694 l 318 128 l 137 694 l 16 694 l 255 0 l 373 0 l 559 545 l 743 0 l 861 0 l 1099 694 z "},"ẃ":{"ha":1115,"x_min":0,"x_max":0,"o":"m 793 1042 l 668 1042 l 516 785 l 589 785 z m 983 694 l 799 125 l 609 694 l 507 694 l 318 128 l 137 694 l 16 694 l 255 0 l 373 0 l 559 545 l 743 0 l 861 0 l 1099 694 z "},"ŵ":{"ha":1115,"x_min":0,"x_max":0,"o":"m 559 970 l 667 785 l 752 785 l 615 1042 l 503 1042 l 368 785 l 451 785 z m 983 694 l 799 125 l 609 694 l 507 694 l 318 128 l 137 694 l 16 694 l 255 0 l 373 0 l 559 545 l 743 0 l 861 0 l 1099 694 z "},"ẅ":{"ha":1115,"x_min":0,"x_max":0,"o":"m 434 825 b 509 898 474 825 509 858 b 434 972 509 941 474 972 b 358 898 392 972 358 941 b 434 825 358 858 392 825 z m 686 825 b 760 898 727 825 760 858 b 686 972 760 941 727 972 b 611 898 646 972 611 941 b 686 825 611 858 646 825 z m 983 694 l 799 125 l 609 694 l 507 694 l 318 128 l 137 694 l 16 694 l 255 0 l 373 0 l 559 545 l 743 0 l 861 0 l 1099 694 z "},"ẁ":{"ha":1115,"x_min":0,"x_max":0,"o":"m 602 785 l 450 1042 l 325 1042 l 530 785 z m 983 694 l 799 125 l 609 694 l 507 694 l 318 128 l 137 694 l 16 694 l 255 0 l 373 0 l 559 545 l 743 0 l 861 0 l 1099 694 z "},"x":{"ha":740,"x_min":0,"x_max":0,"o":"m 724 694 l 595 694 l 370 425 l 146 694 l 16 694 l 306 347 l 16 0 l 148 0 l 372 269 l 595 0 l 724 0 l 436 347 z "},"y":{"ha":710,"x_min":0,"x_max":0,"o":"m 573 694 l 358 125 l 135 694 l 16 694 l 300 -5 l 134 -417 l 248 -417 l 396 -52 l 694 694 z "},"ý":{"ha":710,"x_min":0,"x_max":0,"o":"m 590 1042 l 465 1042 l 313 785 l 385 785 z m 573 694 l 358 125 l 135 694 l 16 694 l 300 -5 l 134 -417 l 248 -417 l 396 -52 l 694 694 z "},"ŷ":{"ha":710,"x_min":0,"x_max":0,"o":"m 356 970 l 464 785 l 549 785 l 411 1042 l 300 1042 l 165 785 l 248 785 z m 573 694 l 358 125 l 135 694 l 16 694 l 300 -5 l 134 -417 l 248 -417 l 396 -52 l 694 694 z "},"ÿ":{"ha":710,"x_min":0,"x_max":0,"o":"m 231 825 b 306 898 271 825 306 858 b 231 972 306 941 271 972 b 155 898 189 972 155 941 b 231 825 155 858 189 825 z m 483 825 b 557 898 524 825 557 858 b 483 972 557 941 524 972 b 408 898 443 972 408 941 b 483 825 408 858 443 825 z m 573 694 l 358 125 l 135 694 l 16 694 l 300 -5 l 134 -417 l 248 -417 l 396 -52 l 694 694 z "},"ỳ":{"ha":710,"x_min":0,"x_max":0,"o":"m 399 785 l 247 1042 l 122 1042 l 326 785 z m 573 694 l 358 125 l 135 694 l 16 694 l 300 -5 l 134 -417 l 248 -417 l 396 -52 l 694 694 z "},"z":{"ha":715,"x_min":0,"x_max":0,"o":"m 658 694 l 85 694 l 85 587 l 457 587 l 57 0 l 658 0 l 658 108 l 259 108 z "},"ź":{"ha":715,"x_min":0,"x_max":0,"o":"m 606 1042 l 481 1042 l 328 785 l 401 785 z m 658 694 l 85 694 l 85 587 l 457 587 l 57 0 l 658 0 l 658 108 l 259 108 z "},"ž":{"ha":715,"x_min":0,"x_max":0,"o":"m 427 785 l 564 1042 l 479 1042 l 372 858 l 264 1042 l 181 1042 l 316 785 z m 658 694 l 85 694 l 85 587 l 457 587 l 57 0 l 658 0 l 658 108 l 259 108 z "},"ż":{"ha":715,"x_min":0,"x_max":0,"o":"m 372 799 b 446 873 411 799 446 832 b 372 948 446 915 411 948 b 297 873 332 948 297 915 b 372 799 297 832 332 799 z m 658 694 l 85 694 l 85 587 l 457 587 l 57 0 l 658 0 l 658 108 l 259 108 z "},"ﬁ":{"ha":866,"x_min":0,"x_max":0,"o":"m 274 1068 b 378 1174 274 1132 323 1174 l 458 1172 l 458 1255 b 366 1278 439 1267 401 1278 b 167 1082 259 1278 167 1191 l 167 694 l 50 694 l 50 590 l 167 590 l 167 0 l 274 0 l 274 590 l 460 590 l 460 694 l 274 694 z m 748 898 b 674 972 748 941 714 972 b 597 898 632 972 597 941 b 674 825 597 858 632 825 b 748 898 714 825 748 858 z m 620 0 l 727 0 l 727 694 l 620 694 z "},"ﬂ":{"ha":840,"x_min":0,"x_max":0,"o":"m 274 1068 b 378 1174 274 1132 323 1174 l 458 1172 l 458 1255 b 366 1278 439 1267 401 1278 b 167 1082 259 1278 167 1191 l 167 694 l 50 694 l 50 590 l 167 590 l 167 0 l 274 0 l 274 590 l 460 590 l 460 694 l 274 694 z m 606 1278 l 606 0 l 714 0 l 714 1278 z "},"ª":{"ha":599,"x_min":0,"x_max":0,"o":"m 448 1042 l 448 948 b 273 1050 413 1009 349 1050 b 61 833 156 1050 61 953 b 273 616 61 712 156 616 b 448 719 349 616 413 656 l 448 625 l 507 625 l 507 1042 z m 283 668 b 120 833 193 668 120 741 b 283 995 120 922 193 995 b 448 833 373 995 448 922 b 283 668 448 741 373 668 z "},"º":{"ha":568,"x_min":0,"x_max":0,"o":"m 283 616 b 507 833 406 616 507 712 b 283 1050 507 953 406 1050 b 61 833 160 1050 61 953 b 283 616 61 712 160 616 z m 283 668 b 120 833 193 668 120 741 b 283 995 120 922 193 995 b 448 833 373 995 448 922 b 283 668 448 741 373 668 z "},"Δ":{"ha":1035,"x_min":0,"x_max":0,"o":"m 580 1042 l 455 1042 l 36 0 l 101 0 l 875 0 l 997 0 z m 196 99 l 517 915 l 837 99 z "},"Ω":{"ha":1259,"x_min":0,"x_max":0,"o":"m 95 0 l 495 0 l 495 59 b 226 528 361 127 226 302 b 634 962 226 766 387 962 b 1033 531 891 962 1031 736 b 760 59 1033 295 898 128 l 760 0 l 1161 0 l 1161 80 l 920 80 l 920 90 b 1139 547 1028 168 1139 340 b 634 1043 1139 806 941 1043 b 118 543 335 1043 118 826 b 335 90 118 339 222 177 l 335 80 l 95 80 z "},"μ":{"ha":873,"x_min":0,"x_max":0,"o":"m 618 694 l 618 273 b 422 82 618 167 530 82 b 231 273 316 82 231 167 l 231 694 l 123 694 l 123 -347 l 207 -347 l 207 61 b 394 -14 255 14 321 -14 b 618 108 486 -14 568 33 l 618 0 l 724 0 l 724 694 z "},"π":{"ha":984,"x_min":0,"x_max":0,"o":"m 122 0 l 222 0 b 347 675 285 135 339 483 l 682 674 l 682 210 b 707 0 682 104 689 31 l 807 0 b 785 224 792 47 785 109 l 785 674 l 927 674 l 936 755 l 262 755 b 31 715 141 755 73 738 l 43 653 b 245 674 82 667 135 674 b 122 0 236 455 182 153 z "},"⁄":{"ha":759,"x_min":0,"x_max":0,"o":"m -26 0 l 59 0 l 786 1042 l 700 1042 z "},"½":{"ha":1477,"x_min":0,"x_max":0,"o":"m 257 347 l 257 1042 l 68 1042 l 68 969 l 184 969 l 184 347 z m 965 1042 l 240 0 l 325 0 l 1052 1042 z m 1068 75 l 1243 269 b 1378 514 1351 387 1382 434 b 1174 705 1375 632 1285 705 b 958 498 1052 707 957 623 l 1038 498 b 1170 632 1038 582 1095 632 b 1299 502 1240 630 1299 587 b 1191 318 1299 453 1281 418 l 899 0 l 1399 0 l 1399 75 z "},"¼":{"ha":1455,"x_min":0,"x_max":0,"o":"m 257 347 l 257 1042 l 68 1042 l 68 969 l 184 969 l 184 347 z m 981 1038 l 255 -3 l 340 -3 l 1068 1038 z m 1359 220 l 1286 220 l 1286 694 l 1194 694 l 877 146 l 1212 146 l 1212 0 l 1286 0 l 1286 146 l 1359 146 z m 990 220 l 1212 609 l 1212 220 z "},"¾":{"ha":1486,"x_min":0,"x_max":0,"o":"m 528 554 b 307 760 528 672 431 760 l 288 760 l 510 1045 l 97 1045 l 97 972 l 366 972 l 146 686 l 313 686 b 451 557 389 686 451 634 b 311 415 451 477 389 415 b 174 543 236 415 174 470 l 97 543 b 311 342 97 432 193 342 b 528 554 432 342 528 436 z m 1066 1038 l 340 -3 l 425 -3 l 1153 1038 z m 1391 220 l 1318 220 l 1318 694 l 1226 694 l 908 146 l 1243 146 l 1243 0 l 1318 0 l 1318 146 l 1391 146 z m 1021 220 l 1243 609 l 1243 220 z "},"¹":{"ha":387,"x_min":0,"x_max":0,"o":"m 148 521 l 207 521 l 207 1042 l 68 1042 l 68 990 l 148 990 z "},"²":{"ha":531,"x_min":0,"x_max":0,"o":"m 191 599 l 319 740 b 417 917 396 825 418 859 b 267 1056 413 1002 349 1054 b 113 906 181 1056 111 995 l 172 906 b 266 1002 170 965 212 1002 b 359 908 316 1000 359 969 b 281 776 359 872 345 847 l 71 545 l 432 545 l 432 599 z "},"³":{"ha":507,"x_min":0,"x_max":0,"o":"m 250 835 l 236 835 l 398 1040 l 99 1040 l 99 988 l 293 988 l 134 781 l 253 781 b 354 688 309 781 354 743 b 253 585 354 630 309 585 b 155 677 200 585 155 625 l 99 677 b 253 531 99 597 168 531 b 410 684 340 531 410 601 b 250 835 410 771 339 835 z "},"*":{"ha":490,"x_min":0,"x_max":0,"o":"m 191 715 l 245 828 l 299 715 l 354 748 l 281 852 l 408 840 l 408 905 l 281 892 l 354 997 l 299 1030 l 245 917 l 191 1030 l 135 997 l 208 892 l 82 905 l 82 840 l 208 852 l 135 748 z "},"\\":{"ha":944,"x_min":0,"x_max":0,"o":"m 866 -417 l 970 -417 l 78 1278 l -26 1278 z "},"·":{"ha":398,"x_min":0,"x_max":0,"o":"m 198 439 b 260 500 231 439 260 465 b 198 561 260 533 231 561 b 137 500 165 561 137 533 b 198 439 137 465 165 439 z "},"•":{"ha":804,"x_min":0,"x_max":0,"o":"m 403 220 b 639 458 530 220 639 326 b 403 696 639 587 530 696 b 165 458 274 696 165 587 b 403 220 165 326 274 220 z "},":":{"ha":432,"x_min":0,"x_max":0,"o":"m 215 559 b 292 634 257 559 292 592 b 215 708 292 674 257 708 b 141 634 175 708 141 674 b 215 559 141 592 175 559 z m 215 -14 b 292 61 257 -14 292 19 b 215 135 292 101 257 135 b 141 61 175 135 141 101 b 215 -14 141 19 175 -14 z "},",":{"ha":292,"x_min":0,"x_max":0,"o":"m 99 -215 l 313 175 l 191 175 l 9 -215 z "},"…":{"ha":1052,"x_min":0,"x_max":0,"o":"m 165 -14 b 260 82 217 -14 260 30 b 165 177 260 134 217 177 b 69 82 115 177 69 134 b 165 -14 69 30 115 -14 z m 542 -14 b 637 82 594 -14 637 30 b 542 177 637 134 594 177 b 446 82 491 177 446 134 b 542 -14 446 30 491 -14 z m 927 -14 b 1023 82 979 -14 1023 30 b 927 177 1023 134 979 177 b 832 82 877 177 832 134 b 927 -14 832 30 877 -14 z "},"!":{"ha":424,"x_min":0,"x_max":0,"o":"m 168 297 l 253 297 l 266 1167 l 158 1167 z m 212 -14 b 286 61 252 -14 286 21 b 212 135 286 102 252 135 b 137 61 172 135 137 102 b 212 -14 137 21 172 -14 z "},"¡":{"ha":424,"x_min":0,"x_max":0,"o":"m 212 545 b 286 620 252 545 286 578 b 212 694 286 660 252 694 b 137 620 172 694 137 660 b 212 545 137 578 172 545 z m 158 -417 l 266 -417 l 253 398 l 168 398 z "},"#":{"ha":1095,"x_min":0,"x_max":0,"o":"m 264 0 l 345 0 l 378 245 l 646 245 l 611 0 l 689 0 l 727 245 l 922 245 l 932 326 l 738 326 l 785 655 l 979 655 l 991 734 l 795 734 l 830 979 l 750 979 l 715 734 l 450 734 l 483 979 l 405 979 l 368 734 l 175 734 l 161 655 l 359 655 l 311 326 l 115 326 l 104 245 l 299 245 z m 392 326 l 438 655 l 705 655 l 656 326 z "},".":{"ha":332,"x_min":0,"x_max":0,"o":"m 165 -14 b 260 82 217 -14 260 30 b 165 177 260 134 217 177 b 69 82 115 177 69 134 b 165 -14 69 30 115 -14 z "},"?":{"ha":833,"x_min":0,"x_max":0,"o":"m 389 290 l 488 290 l 488 531 b 736 903 488 693 736 634 b 438 1186 736 1066 611 1186 b 141 905 269 1186 144 1066 l 238 905 b 438 1092 243 1012 326 1092 b 641 903 557 1092 641 1012 b 389 519 641 674 389 774 z m 444 -14 b 519 61 484 -14 519 19 b 444 135 519 101 484 135 b 368 61 403 135 368 101 b 444 -14 368 19 403 -14 z "},"¿":{"ha":842,"x_min":0,"x_max":0,"o":"m 389 564 b 464 639 429 564 464 599 b 389 714 464 681 429 714 b 313 639 347 714 313 681 b 389 564 313 599 347 564 z m 394 -417 b 691 -134 563 -417 688 -297 l 594 -134 b 394 -323 589 -243 505 -323 b 191 -132 276 -323 191 -243 b 443 252 191 95 443 -3 l 443 410 l 344 410 l 344 240 b 95 -132 344 76 95 135 b 394 -417 95 -297 222 -417 z "},"\"":{"ha":604,"x_min":0,"x_max":0,"o":"m 148 592 l 227 592 l 240 1056 l 137 1056 z m 377 592 l 457 592 l 469 1056 l 365 1056 z "},"'":{"ha":375,"x_min":0,"x_max":0,"o":"m 148 648 l 227 648 l 240 1056 l 137 1056 z "},";":{"ha":467,"x_min":0,"x_max":0,"o":"m 240 559 b 314 634 280 559 314 592 b 240 708 314 674 280 708 b 165 634 198 708 165 674 b 240 559 165 592 198 559 z m 130 -215 l 344 175 l 222 175 l 40 -215 z "},"/":{"ha":944,"x_min":0,"x_max":0,"o":"m -26 -417 l 78 -417 l 970 1278 l 866 1278 z "},"_":{"ha":969,"x_min":0,"x_max":0,"o":"m 68 -104 l 901 -104 l 901 0 l 68 0 z "},"{":{"ha":432,"x_min":0,"x_max":0,"o":"m 323 -349 l 385 -349 l 385 -267 b 271 -156 297 -267 271 -233 l 271 217 b 174 465 271 318 259 403 b 271 714 259 526 271 611 l 271 1080 b 385 1196 271 1170 299 1196 l 385 1278 l 323 1278 b 186 1094 245 1278 186 1198 l 186 734 b 82 502 186 611 175 550 l 82 427 b 186 196 174 382 186 325 l 186 -167 b 323 -349 186 -271 245 -349 z "},"}":{"ha":432,"x_min":0,"x_max":0,"o":"m 47 -349 l 108 -349 b 247 -167 188 -349 247 -271 l 247 196 b 351 427 247 325 259 382 l 351 502 b 247 734 257 550 247 611 l 247 1094 b 108 1278 247 1198 188 1278 l 47 1278 l 47 1196 b 160 1080 132 1196 160 1170 l 160 714 b 257 465 160 611 172 526 b 160 217 172 403 160 318 l 160 -156 b 47 -267 160 -233 135 -267 z "},"[":{"ha":451,"x_min":0,"x_max":0,"o":"m 127 -347 l 401 -347 l 401 -264 l 222 -264 l 222 1194 l 401 1194 l 401 1278 l 127 1278 z "},"]":{"ha":451,"x_min":0,"x_max":0,"o":"m 50 -347 l 323 -347 l 323 1278 l 50 1278 l 50 1194 l 229 1194 l 229 -264 l 50 -264 z "},"(":{"ha":523,"x_min":0,"x_max":0,"o":"m 474 -403 l 474 -325 b 205 434 323 -304 205 -97 b 474 1200 205 970 323 1179 l 474 1278 b 109 434 269 1262 109 1026 b 474 -403 109 -156 269 -387 z "},")":{"ha":523,"x_min":0,"x_max":0,"o":"m 49 -403 b 413 434 253 -387 413 -156 b 49 1278 413 1026 253 1262 l 49 1200 b 318 434 200 1179 318 970 b 49 -325 318 -97 200 -304 z "},"—":{"ha":1389,"x_min":0,"x_max":0,"o":"m 0 309 l 1389 309 l 1389 413 l 0 413 z "},"–":{"ha":835,"x_min":0,"x_max":0,"o":"m 69 309 l 764 309 l 764 413 l 69 413 z "},"-":{"ha":627,"x_min":0,"x_max":0,"o":"m 69 309 l 556 309 l 556 413 l 69 413 z "},"­":{"ha":635,"x_min":0,"x_max":0,"o":"m 69 309 l 556 309 l 556 413 l 69 413 z "},"«":{"ha":887,"x_min":0,"x_max":0,"o":"m 377 132 l 470 132 l 259 387 l 470 642 l 377 642 l 167 387 z m 628 132 l 722 132 l 512 387 l 722 642 l 628 642 l 417 387 z "},"»":{"ha":887,"x_min":0,"x_max":0,"o":"m 165 132 l 257 132 l 469 387 l 257 642 l 165 642 l 375 387 z m 415 132 l 510 132 l 722 387 l 510 642 l 415 642 l 627 387 z "},"‹":{"ha":495,"x_min":0,"x_max":0,"o":"m 293 132 l 387 132 l 175 387 l 387 642 l 293 642 l 83 387 z "},"›":{"ha":495,"x_min":0,"x_max":0,"o":"m 109 132 l 201 132 l 413 387 l 201 642 l 109 642 l 319 387 z "},"„":{"ha":523,"x_min":0,"x_max":0,"o":"m 108 -269 l 266 149 l 142 149 l 30 -269 z m 342 -269 l 500 149 l 377 149 l 264 -269 z "},"“":{"ha":542,"x_min":0,"x_max":0,"o":"m 198 1056 l 40 637 l 163 637 l 276 1056 z m 443 1056 l 285 637 l 408 637 l 521 1056 z "},"”":{"ha":549,"x_min":0,"x_max":0,"o":"m 354 637 l 512 1056 l 389 1056 l 276 637 z m 102 635 l 260 1054 l 137 1054 l 24 635 z "},"‘":{"ha":288,"x_min":0,"x_max":0,"o":"m 188 1056 l 30 637 l 153 637 l 266 1056 z "},"’":{"ha":229,"x_min":0,"x_max":0,"o":"m 135 637 l 293 1056 l 170 1056 l 57 637 z "},"‚":{"ha":295,"x_min":0,"x_max":0,"o":"m 109 -269 l 267 149 l 144 149 l 31 -269 z "}," ":{"ha":418,"x_min":0,"x_max":0,"o":""},"¢":{"ha":759,"x_min":0,"x_max":0,"o":"m 458 752 b 649 682 531 752 599 727 l 649 792 b 474 847 597 825 538 844 l 474 974 l 403 974 l 403 844 b 85 486 222 818 85 667 b 403 128 85 306 222 155 l 403 -2 l 474 -2 l 474 125 b 649 181 540 128 599 148 l 649 290 b 458 220 601 245 531 220 b 193 486 311 220 193 339 b 458 752 193 634 311 752 z "},"¤":{"ha":847,"x_min":0,"x_max":0,"o":"m 172 193 l 243 264 b 604 264 349 181 500 181 l 675 193 l 734 255 l 665 323 b 665 686 747 429 747 580 l 734 753 l 674 813 l 604 745 b 245 743 500 826 351 826 l 174 814 l 115 752 l 184 684 b 184 325 102 580 102 429 l 113 255 z m 269 351 b 269 656 186 434 188 573 b 576 658 356 741 491 741 b 578 351 663 573 663 436 b 269 351 493 264 356 266 z "},"$":{"ha":760,"x_min":0,"x_max":0,"o":"m 710 274 b 203 790 710 628 203 542 b 342 941 203 878 264 927 l 342 934 l 448 934 l 448 938 b 573 852 500 924 543 896 l 660 925 b 448 1050 613 984 538 1033 l 448 1075 l 342 1075 l 342 1054 b 92 781 201 1038 92 938 b 599 271 92 446 599 530 b 448 102 599 179 536 120 l 448 111 l 342 111 l 342 101 b 151 257 250 116 182 175 l 50 198 b 342 -10 99 83 208 3 l 342 -30 l 448 -30 l 448 -10 b 710 274 597 10 710 113 z "},"€":{"ha":1085,"x_min":0,"x_max":0,"o":"m 644 97 b 255 351 469 97 321 200 l 670 349 l 762 446 l 226 450 b 220 521 222 472 220 497 b 226 587 220 543 222 564 l 738 585 l 837 682 l 252 684 b 644 944 316 837 465 944 b 894 861 733 944 823 915 l 929 970 b 644 1056 844 1024 741 1056 b 134 684 405 1056 203 901 l 85 684 l 16 587 l 113 587 b 109 521 111 564 109 543 b 115 450 109 497 111 472 l 78 450 l 16 351 l 137 351 b 644 -14 207 137 406 -14 b 938 76 743 -14 851 21 l 938 217 b 644 97 861 142 753 97 z "},"ƒ":{"ha":639,"x_min":0,"x_max":0,"o":"m 507 974 b 576 950 531 974 561 965 l 587 1031 b 498 1056 571 1045 533 1056 b 273 861 391 1056 290 970 l 247 694 l 128 694 l 116 611 l 233 611 l 82 -347 l 179 -347 l 330 611 l 526 611 l 538 694 l 344 694 l 368 849 b 507 974 380 922 436 974 z "},"£":{"ha":858,"x_min":0,"x_max":0,"o":"m 257 80 l 257 474 l 516 474 l 516 549 l 257 549 l 257 741 b 479 970 257 878 345 970 b 684 809 573 970 663 903 l 766 845 b 479 1056 727 967 604 1056 b 174 741 299 1056 174 925 l 174 549 l 63 549 l 63 474 l 174 474 l 174 0 l 785 0 l 785 80 z "},"¥":{"ha":948,"x_min":0,"x_max":0,"o":"m 523 500 l 878 1042 l 776 1042 l 472 578 l 172 1042 l 68 1042 l 425 500 l 425 486 l 141 486 l 141 417 l 425 417 l 425 274 l 142 274 l 142 205 l 425 205 l 425 0 l 523 0 l 523 205 l 809 205 l 809 274 l 523 274 l 523 417 l 809 417 l 809 486 l 523 486 z "},"≈":{"ha":851,"x_min":0,"x_max":0,"o":"m 575 443 b 762 672 688 443 767 542 l 684 672 b 568 519 688 580 637 519 b 457 589 517 519 486 552 b 285 689 406 649 361 689 b 89 458 167 689 83 597 l 167 458 b 283 611 163 545 210 611 b 392 547 328 611 358 585 b 575 443 431 503 483 443 z m 575 168 b 762 398 688 168 767 266 l 684 398 b 568 245 688 306 637 245 b 457 314 517 245 486 276 b 285 415 406 375 361 415 b 89 184 167 415 83 323 l 167 184 b 283 337 163 269 210 337 b 392 273 328 337 358 311 b 575 168 432 227 483 168 z "},"~":{"ha":818,"x_min":0,"x_max":0,"o":"m 557 243 b 745 472 672 243 753 342 l 667 472 b 550 319 672 380 620 319 b 439 389 502 319 472 351 b 267 491 391 451 342 491 b 71 259 148 491 64 396 l 149 259 b 267 413 148 345 194 413 b 375 347 313 413 340 389 b 557 243 413 304 465 243 z "},"÷":{"ha":1024,"x_min":0,"x_max":0,"o":"m 512 549 b 582 618 549 549 582 580 b 512 688 582 656 549 688 b 443 618 476 688 443 656 b 512 549 443 580 476 549 z m 95 351 l 929 351 l 929 413 l 95 413 z m 512 76 b 582 146 549 76 582 108 b 512 215 582 184 549 215 b 443 146 476 215 443 184 b 512 76 443 108 476 76 z "},"∅":{"ha":1160,"x_min":0,"x_max":0,"o":"m 891 681 l 950 740 l 915 774 l 856 715 b 580 819 781 780 686 819 b 165 405 351 819 165 634 b 269 128 165 299 205 203 l 210 69 l 245 35 l 304 94 b 580 -10 378 30 474 -10 b 995 405 809 -10 995 175 b 891 681 995 510 955 606 z m 253 405 b 580 731 253 587 398 731 b 793 653 661 731 736 701 l 332 191 b 253 405 283 248 253 323 z m 580 76 b 366 156 498 76 424 106 l 828 618 b 908 405 878 561 908 486 b 580 76 908 222 762 76 z "},"=":{"ha":1024,"x_min":0,"x_max":0,"o":"m 95 462 l 929 462 l 929 536 l 95 536 z m 95 200 l 929 200 l 929 274 l 95 274 z "},">":{"ha":1040,"x_min":0,"x_max":0,"o":"m 137 906 l 137 814 l 814 472 l 137 130 l 137 36 l 903 424 l 903 523 z "},"≥":{"ha":1123,"x_min":0,"x_max":0,"o":"m 179 951 l 179 859 l 854 540 l 179 220 l 179 127 l 944 491 l 944 589 z m 179 0 l 944 0 l 944 68 l 179 68 z "},"∞":{"ha":1078,"x_min":0,"x_max":0,"o":"m 285 205 b 540 349 365 205 455 257 b 793 205 623 257 714 205 b 983 405 901 205 979 286 b 793 604 979 523 901 604 b 540 460 714 604 623 552 b 285 604 455 552 365 604 b 95 405 179 604 99 517 b 285 205 99 290 179 205 z m 285 278 b 168 405 222 278 170 333 b 285 530 170 474 222 530 b 490 405 344 530 417 484 b 285 278 417 323 344 278 z m 793 278 b 589 405 733 278 660 323 b 793 530 660 484 733 530 b 910 405 856 530 906 476 b 793 278 906 333 856 278 z "},"∫":{"ha":665,"x_min":0,"x_max":0,"o":"m 158 -262 b 293 -142 222 -262 283 -214 l 460 910 b 507 951 465 936 486 951 b 536 884 535 951 543 932 l 609 884 b 521 1030 639 969 592 1030 b 384 910 457 1030 394 981 l 215 -142 b 172 -184 214 -168 193 -184 b 142 -116 144 -184 134 -167 l 68 -116 b 158 -262 40 -203 85 -262 z "},"<":{"ha":1040,"x_min":0,"x_max":0,"o":"m 903 906 l 137 523 l 137 424 l 903 36 l 903 130 l 226 472 l 903 814 z "},"≤":{"ha":1123,"x_min":0,"x_max":0,"o":"m 944 951 l 179 589 l 179 491 l 944 127 l 944 220 l 269 540 l 944 859 z m 179 0 l 944 0 l 944 68 l 179 68 z "},"¬":{"ha":1108,"x_min":0,"x_max":0,"o":"m 891 161 l 972 161 l 972 599 l 137 599 l 137 517 l 891 517 z "},"µ":{"ha":828,"x_min":0,"x_max":0,"o":"m 618 694 l 618 273 b 422 82 618 167 530 82 b 231 273 316 82 231 167 l 231 694 l 123 694 l 123 -347 l 207 -347 l 207 61 b 394 -14 255 14 321 -14 b 618 108 486 -14 568 33 l 618 0 l 724 0 l 724 694 z "},"−":{"ha":882,"x_min":0,"x_max":0,"o":"m 95 351 l 788 351 l 788 457 l 95 457 z "},"×":{"ha":1017,"x_min":0,"x_max":0,"o":"m 849 655 l 736 771 l 510 545 l 285 771 l 172 655 l 396 431 l 172 207 l 285 90 l 510 316 l 736 90 l 849 207 l 625 431 z "},"≠":{"ha":1024,"x_min":0,"x_max":0,"o":"m 929 462 l 929 536 l 705 536 l 845 700 l 773 700 l 634 536 l 95 536 l 95 462 l 569 462 l 410 274 l 95 274 l 95 200 l 345 200 l 179 5 l 250 5 l 417 200 l 929 200 l 929 274 l 481 274 l 642 462 z "},"∂":{"ha":755,"x_min":0,"x_max":0,"o":"m 250 979 l 250 899 b 557 634 392 932 512 819 b 118 417 384 714 196 630 b 347 10 31 188 130 10 b 674 455 531 10 674 205 b 250 979 675 778 490 1010 z m 578 455 b 347 85 576 250 472 85 b 207 392 207 85 142 222 b 573 543 278 580 425 641 b 578 455 576 516 578 486 z "},"%":{"ha":1040,"x_min":0,"x_max":0,"o":"m 276 625 b 462 839 378 625 462 720 b 276 1056 462 958 378 1056 b 89 839 172 1056 89 958 b 276 625 89 720 172 625 z m 106 0 l 219 0 l 934 1042 l 821 1042 z m 276 708 b 174 839 220 708 174 766 b 276 972 174 913 220 972 b 378 839 330 972 378 913 b 276 708 378 766 330 708 z m 766 -14 b 951 203 870 -14 951 83 b 766 417 951 321 870 417 b 578 203 661 417 578 321 b 766 -14 578 83 661 -14 z m 766 69 b 663 203 710 69 663 128 b 766 333 663 276 710 333 b 866 203 819 333 866 276 b 766 69 866 128 819 69 z "},"‰":{"ha":1476,"x_min":0,"x_max":0,"o":"m 276 625 b 462 839 378 625 462 720 b 276 1056 462 958 378 1056 b 89 839 172 1056 89 958 b 276 625 89 720 172 625 z m 106 0 l 219 0 l 934 1042 l 821 1042 z m 276 708 b 174 839 220 708 174 766 b 276 972 174 913 220 972 b 378 839 330 972 378 913 b 276 708 378 766 330 708 z m 766 -14 b 951 203 870 -14 951 83 b 766 417 951 321 870 417 b 578 203 661 417 578 321 b 766 -14 578 83 661 -14 z m 1208 -14 b 1394 203 1313 -14 1394 83 b 1208 417 1394 321 1313 417 b 1021 203 1104 417 1021 321 b 1208 -14 1021 83 1104 -14 z m 766 69 b 663 203 710 69 663 128 b 766 333 663 276 710 333 b 866 203 819 333 866 276 b 766 69 866 128 819 69 z m 1208 69 b 1106 203 1153 69 1106 128 b 1208 333 1106 276 1153 333 b 1309 203 1264 333 1309 276 b 1208 69 1309 128 1264 69 z "},"+":{"ha":1135,"x_min":0,"x_max":0,"o":"m 519 0 l 618 0 l 618 380 l 998 380 l 998 481 l 618 481 l 618 861 l 519 861 l 519 481 l 137 481 l 137 380 l 519 380 z "},"±":{"ha":1123,"x_min":0,"x_max":0,"o":"m 608 604 l 608 854 l 516 854 l 516 604 l 82 604 l 82 510 l 516 510 l 516 260 l 608 260 l 608 510 l 1042 510 l 1042 604 z m 82 0 l 1042 0 l 1042 83 l 82 83 z "},"∏":{"ha":1047,"x_min":0,"x_max":0,"o":"m 967 976 l 82 976 l 82 898 l 186 898 l 186 -167 l 266 -167 l 266 898 l 783 898 l 783 -167 l 861 -167 l 861 898 l 967 898 z "},"√":{"ha":1030,"x_min":0,"x_max":0,"o":"m 361 -108 l 417 -108 l 962 1028 l 894 1057 l 398 19 l 253 458 l 109 458 l 109 385 l 200 385 z "},"∑":{"ha":1066,"x_min":0,"x_max":0,"o":"m 137 -163 l 929 -165 l 929 -82 l 281 -82 l 766 406 l 281 892 l 929 892 l 929 976 l 137 976 l 137 915 l 653 406 l 137 -104 z "},"◊":{"ha":1113,"x_min":0,"x_max":0,"o":"m 556 73 l 974 491 l 556 910 l 137 490 z m 557 194 l 260 490 l 557 788 l 852 491 z "},"":{"ha":1330,"x_min":0,"x_max":0,"o":"m 665 0 b 1193 528 957 0 1193 238 b 665 1056 1193 819 957 1056 b 137 528 375 1056 137 819 b 665 0 137 238 375 0 z m 665 50 b 188 528 403 50 188 266 b 665 1005 188 792 403 1005 b 1142 528 929 1005 1142 792 b 665 50 1142 266 929 50 z m 941 302 b 958 309 948 302 955 304 b 958 344 967 321 969 335 l 776 528 l 958 712 b 958 747 969 720 969 738 b 924 747 950 757 934 757 l 722 545 b 722 510 714 536 714 521 l 924 309 b 941 302 929 304 936 302 z m 389 302 b 413 326 403 302 413 313 l 413 729 b 389 753 413 743 403 753 b 363 729 375 753 363 743 l 363 326 b 389 302 363 313 375 302 z m 665 302 b 689 326 679 302 689 313 l 689 729 b 665 753 689 743 679 753 b 639 729 651 753 639 743 l 639 326 b 665 302 639 313 651 302 z m 464 503 l 590 503 b 615 528 604 503 615 514 b 590 552 615 542 604 552 l 464 552 b 438 528 450 552 438 542 b 464 503 438 514 450 503 z "},"|":{"ha":415,"x_min":0,"x_max":0,"o":"m 170 -208 l 243 -208 l 243 1042 l 170 1042 z "},"¦":{"ha":415,"x_min":0,"x_max":0,"o":"m 170 542 l 243 542 l 243 1042 l 170 1042 z m 170 -208 l 243 -208 l 243 292 l 170 292 z "},"@":{"ha":859,"x_min":0,"x_max":0,"o":"m 724 207 l 724 509 b 453 762 724 651 604 762 b 95 384 253 762 95 594 b 491 0 95 168 269 0 l 724 0 l 724 69 l 491 69 b 165 384 311 69 165 207 b 453 693 165 556 293 693 b 653 509 564 693 653 611 l 653 470 b 514 540 623 512 566 540 b 339 366 417 540 339 464 b 516 191 339 267 417 191 b 653 259 563 191 622 219 l 653 207 z m 538 253 b 418 366 470 253 418 302 b 538 479 418 431 470 479 b 653 401 594 479 637 446 l 653 332 b 538 253 637 286 594 253 z "},"&":{"ha":943,"x_min":0,"x_max":0,"o":"m 875 580 l 778 580 l 778 755 l 670 755 l 670 580 l 458 580 b 259 767 347 580 259 658 b 439 931 259 873 344 931 l 667 931 l 667 1042 l 420 1042 b 149 773 271 1042 149 931 b 274 531 149 674 198 587 b 141 285 194 479 141 387 b 465 0 141 120 285 0 b 778 295 651 0 778 125 l 778 474 l 875 474 z m 464 95 b 241 288 342 95 241 174 b 436 474 241 392 328 474 l 670 474 l 670 295 b 464 95 670 181 590 95 z "},"¶":{"ha":875,"x_min":0,"x_max":0,"o":"m 444 -208 l 505 -208 l 505 1042 l 398 1042 b 151 809 245 1042 151 962 b 398 576 151 658 245 576 l 444 576 z m 635 -208 l 696 -208 l 696 1042 l 635 1042 z "},"©":{"ha":1241,"x_min":0,"x_max":0,"o":"m 620 -14 b 1155 521 915 -14 1155 226 b 620 1056 1155 816 915 1056 b 85 521 326 1056 85 816 b 620 -14 85 226 326 -14 z m 620 50 b 151 521 359 50 151 259 b 620 991 151 783 359 991 b 1092 521 884 991 1092 783 b 620 50 1092 259 884 50 z m 632 217 b 918 425 766 217 878 304 l 823 425 b 632 307 788 354 715 307 b 420 519 514 307 420 399 b 632 729 420 637 514 729 b 823 611 715 729 788 682 l 918 611 b 632 819 878 733 766 819 b 330 519 465 819 330 684 b 632 217 330 352 465 217 z "},"®":{"ha":1241,"x_min":0,"x_max":0,"o":"m 620 1056 b 85 521 326 1056 85 816 b 620 -14 85 226 326 -14 b 1155 521 915 -14 1155 226 b 620 1056 1155 816 915 1056 z m 620 50 b 151 521 359 50 151 259 b 620 991 151 783 359 991 b 1092 521 884 991 1092 783 b 620 50 1092 259 884 50 z m 813 639 b 655 792 813 724 743 792 l 479 792 l 479 250 l 540 250 l 540 484 l 634 484 l 766 250 l 833 250 l 701 491 b 813 639 767 510 813 568 z m 540 733 l 655 733 b 750 639 708 733 750 691 b 655 545 750 585 708 545 l 540 545 z "},"§":{"ha":877,"x_min":0,"x_max":0,"o":"m 722 340 b 778 465 759 375 778 417 b 236 854 778 733 236 660 b 450 983 236 939 340 983 b 660 910 536 983 615 953 l 719 958 b 444 1056 660 1016 556 1056 b 153 851 297 1056 153 986 b 208 729 153 799 174 760 b 153 606 172 694 153 655 b 694 219 153 339 694 411 b 448 78 694 127 578 78 b 175 201 309 78 210 134 l 104 160 b 444 3 153 73 283 3 b 778 219 620 3 778 85 b 722 340 778 271 757 311 z m 236 608 b 276 686 236 639 250 667 b 694 465 436 608 694 599 b 655 385 694 434 681 406 b 236 608 495 464 236 472 z "},"™":{"ha":1130,"x_min":0,"x_max":0,"o":"m 68 981 l 200 981 l 200 554 l 267 554 l 267 981 l 401 981 l 401 1042 l 68 1042 z m 917 1042 l 741 780 l 564 1042 l 491 1042 l 491 554 l 559 554 l 559 932 l 741 663 l 924 938 l 924 554 l 990 554 l 990 1042 z "},"°":{"ha":701,"x_min":0,"x_max":0,"o":"m 351 684 b 536 870 453 684 536 767 b 351 1056 536 972 453 1056 b 165 870 248 1056 165 972 b 351 684 165 767 248 684 z m 351 743 b 224 870 280 743 224 799 b 351 997 224 941 280 997 b 477 870 422 997 477 941 b 351 743 477 799 422 743 z "},"℮":{"ha":1321,"x_min":0,"x_max":0,"o":"m 660 -12 b 1128 194 851 -12 1023 69 l 1043 194 b 660 17 951 87 814 17 b 297 175 519 17 389 80 b 285 208 290 184 285 196 l 285 500 b 292 505 285 503 286 505 l 1253 505 l 1253 519 b 660 1056 1253 816 988 1056 b 66 519 332 1056 66 816 b 660 -12 66 226 332 -12 z m 292 535 b 285 545 286 535 285 540 l 285 830 b 299 866 285 844 290 858 b 660 1024 392 962 521 1024 b 1021 872 802 1024 929 962 b 1035 837 1031 863 1035 849 l 1035 545 b 1030 535 1035 540 1035 535 z "},"ℓ":{"ha":861,"x_min":0,"x_max":0,"o":"m 470 -7 b 786 194 601 -7 710 57 l 733 241 b 495 82 691 167 604 82 b 302 304 399 82 302 149 l 302 342 b 658 896 516 530 658 707 b 450 1141 658 1024 594 1141 b 194 781 326 1141 194 1056 l 194 373 b 63 269 155 339 109 307 l 97 205 b 196 278 132 229 165 257 l 196 262 b 470 -7 207 125 288 -7 z m 302 448 l 302 795 b 448 1059 302 997 384 1059 b 573 891 540 1059 573 986 b 302 448 573 741 453 595 z "},"^":{"ha":979,"x_min":0,"x_max":0,"o":"m 924 274 l 538 1042 l 439 1042 l 54 274 l 148 274 l 490 953 l 832 274 z "},"†":{"ha":943,"x_min":0,"x_max":0,"o":"m 748 655 l 505 655 l 505 931 l 431 931 l 431 655 l 193 655 l 193 580 l 431 580 l 431 -236 l 505 -236 l 505 580 l 748 580 z "},"‡":{"ha":943,"x_min":0,"x_max":0,"o":"m 748 580 l 748 655 l 505 655 l 505 931 l 431 931 l 431 655 l 193 655 l 193 580 l 431 580 l 431 120 l 193 120 l 193 47 l 431 47 l 431 -236 l 505 -236 l 505 47 l 748 47 l 748 120 l 505 120 l 505 580 z "},"̈":{"ha":0,"x_min":0,"x_max":0,"o":"m -424 825 b -349 898 -384 825 -349 858 b -424 972 -349 941 -384 972 b -500 898 -465 972 -500 941 b -424 825 -500 858 -465 825 z m -172 825 b -97 898 -130 825 -97 858 b -172 972 -97 941 -130 972 b -247 898 -212 972 -247 941 b -172 825 -247 858 -212 825 z "},"̇":{"ha":0,"x_min":0,"x_max":0,"o":"m -212 799 b -137 873 -172 799 -137 832 b -212 948 -137 915 -172 948 b -286 873 -252 948 -286 915 b -212 799 -286 832 -252 799 z "},"̀":{"ha":0,"x_min":0,"x_max":0,"o":"m -35 785 l -187 1042 l -312 1042 l -108 785 z "},"́":{"ha":0,"x_min":0,"x_max":0,"o":"m -340 785 l -267 785 l -62 1042 l -187 1042 z "},"̋":{"ha":0,"x_min":0,"x_max":0,"o":"m -260 785 l -187 785 l 16 1042 l -109 1042 z m -35 785 l 38 785 l 241 1042 l 116 1042 z "},"̂":{"ha":0,"x_min":0,"x_max":0,"o":"m -378 785 l -271 970 l -163 785 l -78 785 l -215 1042 l -326 1042 l -462 785 z "},"̌":{"ha":0,"x_min":0,"x_max":0,"o":"m -326 785 l -215 785 l -78 1042 l -163 1042 l -271 858 l -378 1042 l -462 1042 z "},"̆":{"ha":0,"x_min":0,"x_max":0,"o":"m -481 786 b -252 998 -349 786 -252 870 l -319 998 b -481 856 -319 920 -387 856 b -641 998 -573 856 -641 920 l -708 998 b -481 786 -708 870 -611 786 z "},"̊":{"ha":0,"x_min":0,"x_max":0,"o":"m -137 760 b 5 905 -59 760 5 826 b -137 1049 5 984 -59 1049 b -283 905 -217 1049 -283 984 b -137 760 -283 826 -217 760 z m -137 819 b -222 905 -186 819 -222 856 b -137 991 -222 951 -186 991 b -54 905 -92 991 -54 951 b -137 819 -54 856 -92 819 z "},"̃":{"ha":0,"x_min":0,"x_max":0,"o":"m -193 852 b -45 1040 -97 852 -45 936 l -125 1040 b -193 932 -125 969 -149 932 b -253 970 -224 932 -240 951 b -380 1047 -283 1012 -319 1047 b -526 859 -470 1047 -526 965 l -446 859 b -377 967 -446 920 -422 967 b -319 929 -354 967 -337 958 b -193 852 -293 891 -257 852 z "},"̄":{"ha":0,"x_min":0,"x_max":0,"o":"m -457 839 l -83 839 l -83 911 l -457 911 z "},"̒":{"ha":0,"x_min":0,"x_max":0,"o":"m -106 1151 l -269 906 l -134 906 l -30 1151 z "},"̣":{"ha":0,"x_min":0,"x_max":0,"o":"m -128 -347 b -54 -273 -89 -347 -54 -314 b -128 -198 -54 -233 -89 -198 b -203 -273 -168 -198 -203 -233 b -128 -347 -203 -314 -168 -347 z "},"̦":{"ha":0,"x_min":0,"x_max":0,"o":"m -241 -175 l -78 69 l -214 69 l -318 -175 z "},"̧":{"ha":0,"x_min":0,"x_max":0,"o":"m -196 -361 b -54 -217 -115 -361 -54 -297 b -226 -92 -54 -130 -130 -73 l -181 0 l -247 0 l -307 -122 l -255 -156 b -118 -217 -179 -127 -118 -155 b -196 -297 -118 -262 -153 -297 b -297 -247 -231 -297 -276 -274 l -356 -271 b -196 -361 -330 -321 -259 -361 z "},"̨":{"ha":0,"x_min":0,"x_max":0,"o":"m -194 -359 b -10 -290 -125 -363 -62 -340 l -49 -236 b -179 -300 -80 -278 -127 -300 b -273 -207 -240 -300 -273 -260 b -97 0 -273 -111 -189 -54 l -155 19 b -349 -215 -264 -47 -349 -115 b -194 -359 -349 -304 -288 -356 z "},"̵":{"ha":0,"x_min":0,"x_max":0,"o":"m -651 313 l -248 313 l -248 417 l -651 417 z "},"̶":{"ha":0,"x_min":0,"x_max":0,"o":"m -1045 323 l -56 323 l -56 399 l -1045 399 z "},"̷":{"ha":0,"x_min":0,"x_max":0,"o":"m -637 181 l -578 130 l -207 524 l -267 575 z "},"̸":{"ha":0,"x_min":0,"x_max":0,"o":"m -863 -10 l -781 -61 l -5 1052 l -85 1104 z "},"´":{"ha":89,"x_min":0,"x_max":0,"o":"m 14 785 l 87 785 l 292 1042 l 167 1042 z "},"˘":{"ha":92,"x_min":0,"x_max":0,"o":"m 411 786 b 641 998 543 786 641 870 l 573 998 b 411 856 573 920 505 856 b 252 998 319 856 252 920 l 184 998 b 411 786 184 870 281 786 z "},"ˇ":{"ha":89,"x_min":0,"x_max":0,"o":"m 215 785 l 326 785 l 464 1042 l 378 1042 l 271 858 l 163 1042 l 80 1042 z "},"¸":{"ha":94,"x_min":0,"x_max":0,"o":"m 214 -361 b 356 -217 295 -361 356 -297 b 184 -92 356 -130 280 -73 l 229 0 l 163 0 l 102 -122 l 155 -156 b 292 -217 231 -127 292 -155 b 214 -297 292 -262 257 -297 b 113 -247 179 -297 134 -274 l 54 -271 b 214 -361 80 -321 151 -361 z "},"ˆ":{"ha":89,"x_min":0,"x_max":0,"o":"m 163 785 l 271 970 l 378 785 l 464 785 l 326 1042 l 215 1042 l 80 785 z "},"¨":{"ha":89,"x_min":0,"x_max":0,"o":"m 174 825 b 248 898 214 825 248 858 b 174 972 248 941 214 972 b 97 898 132 972 97 941 b 174 825 97 858 132 825 z m 425 825 b 500 898 467 825 500 858 b 425 972 500 941 467 972 b 351 898 385 972 351 941 b 425 825 351 858 385 825 z "},"˙":{"ha":89,"x_min":0,"x_max":0,"o":"m 212 799 b 286 873 252 799 286 832 b 212 948 286 915 252 948 b 137 873 172 948 137 915 b 212 799 137 832 172 799 z "},"`":{"ha":89,"x_min":0,"x_max":0,"o":"m 319 785 l 167 1042 l 42 1042 l 247 785 z "},"˝":{"ha":89,"x_min":0,"x_max":0,"o":"m 14 785 l 87 785 l 292 1042 l 167 1042 z "},"¯":{"ha":108,"x_min":0,"x_max":0,"o":"m 82 839 l 455 839 l 455 911 l 82 911 z "},"˛":{"ha":89,"x_min":0,"x_max":0,"o":"m 229 -359 b 413 -290 299 -363 361 -340 l 375 -236 b 245 -300 344 -278 297 -300 b 151 -207 184 -300 151 -260 b 326 0 151 -111 234 -54 l 269 19 b 75 -215 160 -47 75 -115 b 229 -359 75 -304 135 -356 z "},"˚":{"ha":90,"x_min":0,"x_max":0,"o":"m 141 760 b 283 905 219 760 283 826 b 141 1049 283 984 219 1049 b -5 905 61 1049 -5 984 b 141 760 -5 826 61 760 z m 141 819 b 56 905 92 819 56 856 b 141 991 56 951 92 991 b 224 905 186 991 224 951 b 141 819 224 856 186 819 z "},"˜":{"ha":95,"x_min":0,"x_max":0,"o":"m 377 852 b 524 1040 472 852 524 936 l 444 1040 b 377 932 444 969 420 932 b 316 970 345 932 330 951 b 189 1047 286 1012 250 1047 b 43 859 99 1047 43 965 l 123 859 b 193 967 123 920 148 967 b 250 929 215 967 233 958 b 377 852 276 891 313 852 z "}}}
